<?xml version="1.0" encoding="utf-8"?>
<!-- Generator: Adobe Illustrator 24.0.3, SVG Export Plug-In . SVG Version: 6.00 Build 0)  -->
<svg version="1.1" id="Layer_1" xmlns="http://www.w3.org/2000/svg" xmlns:xlink="http://www.w3.org/1999/xlink" x="0px" y="0px"
	 viewBox="0 0 500 500" style="enable-background:new 0 0 500 500;" xml:space="preserve">
<style type="text/css">
	.st0{display:none;}
	.st1{display:inline;fill:#EEF4D6;}
	.st2{display:none;fill:#4B4A4C;}
	.st3{display:inline;fill:#76C9B8;}
	.st4{display:inline;}
	.st5{fill:#488BC9;}
	.st6{fill:#FFFFFF;}
</style>
<g class="st0">
	<path class="st1" d="M497.5,250c0,136.7-110.8,247.5-247.5,247.5C113.3,497.5,2.5,386.7,2.5,250C2.5,113.3,113.3,2.5,250,2.5
		C386.7,2.5,497.5,113.3,497.5,250z"/>
</g>
<path class="st2" d="M379.5,359.7L275.6,101.9l-71.9,0.8l11.9,30.2c0,0-79.5,209.9-85.5,224.8c-6,14.9-24,14-24,14v13.8h83.3v-15.5
	c-32.1,0-29.4-17.6-29.4-17.6l20.2-52.7h103.8c7.7,19,14.1,34.9,17.2,42.9c12.1,30.6-31.9,28.1-31.9,28.1v14.7h131v-15.5
	C382.1,369.9,379.5,359.7,379.5,359.7z M190.7,272.1l39.9-104.1c0,0,22.3,54.9,42.2,104.1H190.7z"/>
<g class="st0">
	<path class="st3" d="M497.5,250c0,136.7-110.8,247.5-247.5,247.5C113.3,497.5,2.5,386.7,2.5,250C2.5,113.3,113.3,2.5,250,2.5
		C386.7,2.5,497.5,113.3,497.5,250z"/>
</g>
<g class="st0">
	<path class="st4" d="M271.3,360.7c-14.4-18.3-24-35.5-31.2-45.2l0,0l-17.4-25.8c5.6-1.6,47.8-15.4,49.6-60.6
		c2-50.5-45.8-64.8-107-58.2h-13.5h-6.4h-7h-29.2v10.5c0,0,29.2-0.1,29.2,23.2v157.9c0,0-1.9,20.5-22.2,20.5h-6.9v11.2h89.3v-11.2
		h-11.1c-20.3,0-22.2-20.5-22.2-20.5v-69.2h25.9c7.2,11.7,48.1,78.2,58.7,86.6c12.2,9.8,18,11.2,18,11.2l0,0c6.6,3.3,22.2,9,42.7,3
		v-9.9C310.6,384.2,291.1,385.9,271.3,360.7z M165.3,187.5c7.3-0.7,24.7-2,41.4,0.7c21.2,3.3,35.5,17,35.5,43.6
		c0,24.4-18.7,39.9-36.9,45.5h-40V187.5z"/>
	<path class="st4" d="M344.3,154.3v16.2h23c0,25.8-10,33.4-26.2,33.4c-16.2,0-23.9-16.8-23.9-16.8s0-39.8,0-50.1
		c0-10.3,7.1-24.9,24.9-24.9c17.8,0,25.2,17.2,25.2,17.2l15-6.4C369.7,94.1,342,97,342,97c-43.3,0-42.7,42.7-42.7,42.7v43.2
		c0,0,1,37.4,42.4,37.4c41.4,0,43.6-39.2,43.6-39.2v-26.8H344.3z"/>
</g>
<g>
	<g>
		<path class="st5" d="M497.5,250c0,136.7-110.8,247.5-247.5,247.5C113.3,497.5,2.5,386.7,2.5,250C2.5,113.3,113.3,2.5,250,2.5
			C386.7,2.5,497.5,113.3,497.5,250z"/>
	</g>
	<path class="st6" d="M375.6,128.1V99.5l19.8-8.6h-48l0,0c0,0-69.3,0-93.8,0c-0.1,0-0.2,0-0.3,0h-42.7L91.8,154.7l75.6-1
		c-0.7,3.6-1.1,7.2-1.1,10.9c0,39.5,26.1,70.9,70.8,70.9c3.1,0,6.1-0.2,9.1-0.4c-2.9,5.6-5,11.8-5,18.3c0,11,6,17.2,13.5,24.5
		c-5.6,0-11.1,0.1-17,0.1c-54.5,0-92.6,37.5-92.6,73.5c0,35.4,46,57.6,100.5,57.6c62.1,0,100.3-35.3,100.3-70.7
		c0-28.4-6.1-42.7-36.4-65.4c-8.7-6.5-27.6-19.9-27.6-28.9c0-10.5,3-15.7,18.8-28.1c16.2-12.7,27.7-29.4,27.7-50.1
		c0-15.4-4.3-29.8-12.5-40.6l48.8-21.1v24c-3.2,1.9-5.4,5.4-5.4,9.4v109.7H381V137.5C381,133.5,378.8,130,375.6,128.1z M315.6,332.3
		c0.8,3.3,1.2,6.7,1.2,10.1c0,28.7-18.5,51-71.4,51c-37.7,0-64.9-23.8-64.9-52.5c0-28.1,31.9-52.3,69.6-51.9
		c8.8,0.1,17,1.5,24.4,3.9C295,307.2,311.5,316.1,315.6,332.3z M290.7,167.3c4.4,33.2-10.2,54.6-35.5,53.8
		c-25.3-0.8-49.3-24-53.7-57.2c-0.5-3.7-0.7-7.3-0.7-10.8l52.1-0.7l29.6-12.8C286.6,148,289.4,157.4,290.7,167.3z"/>
</g>
</svg>
