<?xml version="1.0" standalone="no"?>
<!DOCTYPE svg PUBLIC "-//W3C//DTD SVG 1.1//EN" "http://www.w3.org/Graphics/SVG/1.1/DTD/svg11.dtd">
<svg xmlns="http://www.w3.org/2000/svg">
<defs >
<font id="JosefinSlab" horiz-adv-x="508" ><font-face
    font-family="Josefin Slab Thin"
    units-per-em="1000"
    panose-1="2 0 0 0 0 0 0 0 0 0"
    ascent="750"
    descent="-250"
    alphabetic="0" />
<glyph unicode=" " horiz-adv-x="300" />
<glyph unicode="!" horiz-adv-x="201" d="M151 53Q151 76 135 90T100 105Q80 105 64 91T48 53Q48 30 64 15T100 0Q119 0 135 15T151 53ZM141 166V750H58V166H141Z" />
<glyph unicode="&quot;" horiz-adv-x="335" d="M275 472Q276 535 277 596T279 720H196V472H275ZM142 472Q143 535 144 596T146 720H63V472H142Z" />
<glyph unicode="#" horiz-adv-x="571" d="M223 371H323L311 269H211L223 371ZM179 0L201 188H301L279 0H363L385 188H487L497 269H395L407 371H510L518 452H416L440 643H356L332 452H232L256 643H172L148 452H56L48 371H139L127 269H35L25 188H117L95 0H179Z" />
<glyph unicode="$" horiz-adv-x="567" d="M281 -68V-6Q318 -2 350 13T407 54Q431 79 445 112T459 187Q459 241 444 277T402 336Q377 359 345 373T281 398V623Q300 621 315 616T345 605V546H424V644Q386 675 350 687T281 702V764H197V700Q156 692 128 674T81 630Q63
604 56 575T49 517Q50 473 62 444T96 396Q116 376 142 364T197 343V75Q168 81 144 93T100 120V209H21V93Q33 75 52 59T96 30Q118 18 143 10T197 -3V-68H281ZM281 316Q301 308 318 298T348 272Q361 257 368 237T376 188Q376 156 364 133T330 96Q320 89 308 84T281
75V316ZM132 514Q132 535 138 554T157 588Q165 597 175 604T197 616V427Q187 432 178 437T161 449Q148 461 140 476T132 514Z" />
<glyph unicode="%" horiz-adv-x="726" d="M478 111Q478 121 481 129T489 143Q495 149 503 152T522 156Q531 156 538 153T552 145Q559 140 562 131T566 111Q566 100 562 91T551 75Q546 70 539 68T522 65Q515 65 509 66T498 72Q488 77 483 87T478 111ZM612 21Q629
38 639 61T650 111Q650 137 640 160T612 200Q594 217 571 227T522 237Q496 237 473 227T432 200Q414 183 404 160T394 111Q394 84 404 61T432 21Q449 4 472 -6T522 -16Q548 -16 571 -6T612 21ZM174 389Q174 400 178 409T189 424Q194 429 201 431T218 434Q228 434
236 431T251 421Q256 415 259 407T262 389Q262 377 258 367T244 351Q239 347 233 345T218 343Q209 343 202 346T188 354Q181 360 178 369T174 389ZM308 299Q325 316 335 339T346 389Q346 415 336 438T308 478Q290 495 267 505T218 515Q192 515 169 505T128 478Q110
461 100 438T90 389Q90 362 100 339T128 299Q145 282 168 272T218 262Q244 262 267 272T308 299ZM265 0Q340 126 414 250T563 500H472Q397 374 323 250T174 0H265Z" />
<glyph unicode="&amp;" horiz-adv-x="700" d="M305 -9Q353 -9 393 10T461 63L511 -19L576 24L501 145Q503 156 504 168T506 192Q506 198 506 203T506 214V294H601V375H422V311Q422 303 422 293T422 273L273 515Q263 531 258 547T252 581Q252 593 257 608T272 638Q282
651 297 660T333 669Q357 669 381 659T421 640L454 705Q429 721 395 734T323 748Q285 748 256 734T207 697Q187 674 177 648T166 596Q166 571 174 546T196 496L266 380Q231 374 202 357T151 314Q129 288 117 256T105 188Q105 147 120 112T163 49Q190 22 226 7T305
-9ZM305 72Q280 72 259 80T222 104Q206 120 197 141T188 188Q188 214 196 234T219 270Q236 286 260 294T314 303L413 141Q400 110 372 91T305 72Z" />
<glyph unicode="&apos;" horiz-adv-x="163" d="M122 472Q123 535 124 596T126 720H42V472H122Z" />
<glyph unicode="(" horiz-adv-x="424" d="M353 -141Q324 -108 297 -63T247 37Q225 92 212 156T199 291Q199 362 212 426T247 545Q269 600 296 645T353 723Q335 729 317 734T280 746Q248 713 219 666T166 560Q143 502 129 434T115 291Q115 216 129 148T166 22Q189
-36 218 -83T280 -164Q298 -158 316 -153T353 -141Z" />
<glyph unicode=")" horiz-adv-x="400" d="M261 19Q284 77 298 145T312 288Q312 363 298 431T261 557Q238 615 208 662T147 743Q129 737 111 731T74 718Q103 685 130 640T180 540Q202 485 215 421T228 286Q228 215 215 151T180 32Q158 -23 131 -68T74 -146Q92 -151
110 -156T147 -167Q178 -134 208 -87T261 19Z" />
<glyph unicode="*" horiz-adv-x="335" d="M208 434Q208 451 208 468T209 503Q225 494 240 485T271 466L313 539L250 575Q267 584 282 593T315 612L275 681Q259 672 243 663T211 645Q211 664 211 682T212 720H128V645Q112 654 97 663T65 682L26 613Q41 604 56 595T87
576Q71 568 56 559T25 542L67 469Q82 478 97 486T128 504V434H208Z" />
<glyph unicode="+" horiz-adv-x="543" d="M308 51V190H446V271H308V411H224V271H86V190H224V51H308Z" />
<glyph unicode="," horiz-adv-x="200" d="M77 -120Q99 -68 120 -17T163 86H79Q59 34 41 -17T2 -120H77Z" />
<glyph unicode="-" horiz-adv-x="300" d="M237 147V228H53V147H237Z" />
<glyph unicode="." horiz-adv-x="163" d="M136 52Q136 75 120 90T85 105Q65 105 49 90T33 52Q33 29 49 15T85 0Q104 0 120 14T136 52Z" />
<glyph unicode="/" horiz-adv-x="380" d="M101 -19Q171 171 240 358T379 736H295Q225 546 156 359T17 -19H101Z" />
<glyph unicode="0" horiz-adv-x="616" d="M488 82Q526 125 549 186T573 323Q573 399 553 461T497 567Q461 610 412 634T307 658Q251 658 202 635T117 569Q80 526 59 465T37 327Q37 251 59 190T119 84Q156 40 204 16T303 -8Q354 -8 402 15T488 82ZM174 147Q149
181 135 227T121 326Q121 362 131 406T163 488Q185 526 220 551T307 577Q358 577 393 551T450 487Q471 448 480 404T489 324Q489 271 474 225T434 145Q408 111 374 92T303 73Q265 73 232 93T174 147Z" />
<glyph unicode="1" horiz-adv-x="290" d="M265 0V79H186V650H34V569H102V79H23V0H265Z" />
<glyph unicode="2" horiz-adv-x="519" d="M496 0V174H417V81H253Q293 126 330 170T396 261Q424 307 441 353T459 450Q459 492 444 529T402 596Q375 624 337 641T253 658Q202 658 163 642T98 597Q71 569 58 532T44 455Q44 405 63 364T117 300L167 351Q148 371 138
396T128 455Q128 471 133 492T153 532Q167 551 191 564T253 577Q271 577 292 569T333 544Q351 527 363 501T375 438Q375 391 348 340T276 234Q231 179 173 121T53 0H496Z" />
<glyph unicode="3" horiz-adv-x="515" d="M373 56Q403 85 420 124T438 209Q438 245 427 277T396 335Q376 361 349 380T289 412L432 650H103V521H182V568H293L154 326Q169 335 185 339T219 343Q247 343 271 333T315 304Q333 286 344 262T355 209Q355 181 344 157T315
114Q296 95 272 84T219 73Q189 73 164 85T120 120L59 63Q89 31 130 12T219 -8Q264 -8 303 9T373 56Z" />
<glyph unicode="4" horiz-adv-x="529" d="M486 0V79H403V183H500V264H403V658L37 183H319V79H244V0H486ZM319 413V264H205L319 413Z" />
<glyph unicode="5" horiz-adv-x="543" d="M407 56Q437 85 454 124T472 209Q472 254 455 293T407 362Q377 391 338 407T253 424Q246 424 240 424T227 422V569H351V521H430V650H143V292Q160 320 189 331T253 343Q281 343 305 333T349 304Q367 286 378 262T389 209Q389
181 378 157T349 114Q330 95 306 84T253 73Q227 73 204 82T164 109L103 53Q132 24 170 8T253 -8Q298 -8 337 9T407 56Z" />
<glyph unicode="6" horiz-adv-x="520" d="M172 114Q154 132 144 156T134 209Q134 237 144 261T172 304Q190 322 214 332T265 343Q293 343 317 333T361 304Q379 286 390 262T401 209Q401 181 390 157T361 114Q342 95 318 84T265 73Q238 73 214 84T172 114ZM419
56Q449 85 466 124T484 209Q484 254 467 293T419 362Q389 391 350 407T265 424Q260 424 255 424T244 423Q261 441 280 458T324 495Q347 513 373 532T431 573Q418 589 405 605T379 637Q323 596 264 549T157 448Q109 394 79 332T48 197Q50 154 68 117T116 52Q145
24 183 8T265 -8Q310 -8 349 9T419 56Z" />
<glyph unicode="7" horiz-adv-x="469" d="M135 0L427 650H14V521H93V568H297L40 0H135Z" />
<glyph unicode="8" horiz-adv-x="510" d="M180 498Q180 514 186 528T202 554Q212 564 226 570T256 577Q271 577 284 571T307 555Q318 544 324 529T330 498Q330 481 324 467T305 442Q296 433 283 429T255 424Q241 424 229 428T207 440Q195 450 188 465T180 498ZM160
114Q142 132 132 156T122 209Q122 237 132 261T161 304Q179 322 204 332T258 343Q285 342 309 331T351 302Q368 284 378 260T389 209Q389 181 378 157T349 114Q330 95 306 84T253 73Q226 73 202 84T160 114ZM407 56Q437 85 454 124T472 209Q472 246 460 278T428
338Q416 354 401 367T369 391Q389 411 401 438T413 498Q413 531 401 560T366 611Q344 633 315 645T253 658Q220 658 192 646T142 611Q120 589 108 560T95 498Q95 466 106 439T138 391Q120 380 105 366T76 334Q57 308 47 276T36 209Q36 164 53 125T100 56Q129 26
168 9T253 -8Q298 -8 337 9T407 56Z" />
<glyph unicode="9" horiz-adv-x="525" d="M150 324Q131 342 120 366T109 419Q109 447 120 471T150 515Q168 533 192 544T245 555Q272 555 296 544T338 515Q356 496 366 472T376 419Q376 391 366 367T338 324Q320 306 296 296T245 285Q217 285 193 295T150 324ZM350
176Q399 229 430 290T462 419Q462 463 445 502T399 572Q369 601 330 618T245 636Q200 636 161 619T91 573Q61 543 44 504T26 419Q26 374 43 335T91 267Q121 237 160 221T245 204Q250 204 256 204T269 207Q259 197 248 187T226 167Q198 142 162 114T79 55Q92 39
105 23T131 -9Q185 30 243 76T350 176Z" />
<glyph unicode=":" horiz-adv-x="175" d="M136 302Q136 325 120 340T85 355Q65 355 49 340T33 302Q33 279 49 265T85 250Q104 250 120 264T136 302ZM136 52Q136 75 120 90T85 105Q65 105 49 90T33 52Q33 29 49 15T85 0Q104 0 120 14T136 52Z" />
<glyph unicode=";" horiz-adv-x="201" d="M167 302Q167 325 151 340T116 355Q96 355 80 340T64 302Q64 279 80 265T116 250Q135 250 151 264T167 302ZM63 -120Q85 -68 106 -17T149 86H65Q45 34 27 -17T-12 -120H63Z" />
<glyph unicode="&lt;" horiz-adv-x="680" d="M553 99Q493 134 433 168T312 238Q372 273 432 307T553 377V490Q443 427 335 364T116 238Q226 175 334 112T553 -14V99Z" />
<glyph unicode="=" horiz-adv-x="708" d="M606 112V193H100V112H606ZM606 306V387H100V306H606Z" />
<glyph unicode="&gt;" horiz-adv-x="650" d="M553 238Q443 301 335 364T116 490V377Q176 342 236 308T357 238Q297 203 237 169T116 99V-14Q226 49 334 112T553 238Z" />
<glyph unicode="?" horiz-adv-x="452" d="M247 164V242Q247 269 256 287T279 320Q293 333 309 343T339 364Q384 398 410 439T437 537Q437 577 422 612T380 674Q354 701 318 716T241 732Q190 732 155 716T97 677Q74 654 61 628T41 579Q59 572 77 566T114 552Q120
572 127 587T146 615Q161 633 184 642T241 651Q265 651 285 643T319 621Q335 606 343 584T352 537Q352 500 335 468T282 409Q259 391 238 378T200 348Q183 333 173 313T163 261V164H247ZM255 52Q255 75 239 90T204 105Q184 105 168 90T152 52Q152 29 168 15T204
0Q223 0 239 14T255 52Z" />
<glyph unicode="@" horiz-adv-x="990" d="M368 188Q368 214 377 236T403 273Q418 287 439 295T485 303Q507 303 526 297T561 279Q580 263 591 240T602 188Q602 160 591 136T559 96Q544 85 526 79T485 72Q464 72 445 78T412 95Q391 111 380 135T368 188ZM748 -144Q735
-129 723 -115T698 -85Q653 -116 601 -133T489 -151Q418 -151 357 -125T249 -52Q202 -6 176 55T149 188Q149 259 175 321T249 430Q295 476 356 502T489 529Q559 529 620 503T727 430Q773 383 799 321T826 188Q824 158 815 138T791 105Q776 92 757 87T718 81H685V375H616Q616
363 614 351T612 328Q610 331 600 340T573 359Q556 368 534 375T485 382Q443 382 406 367T342 324Q315 297 300 262T284 187Q284 147 299 112T342 49Q369 22 406 7T485 -9Q514 -9 537 -2T577 13Q593 21 602 29T612 40V20V0H718Q745 0 777 9T837 42Q865 64 885 99T910
188Q910 276 877 353T787 487Q730 544 653 577T489 610Q401 610 324 577T190 487Q132 430 99 353T65 189Q65 102 98 25T190 -109Q247 -166 324 -199T489 -232Q572 -232 634 -211T748 -144Z" />
<glyph unicode="A" horiz-adv-x="788" d="M257 0V79H200Q228 145 242 178T284 277H504Q525 227 545 178T587 79H531V0H753V79H671Q602 244 533 405T394 732Q325 567 256 406T117 79H35V0H257ZM383 515Q384 518 386 525T393 548L403 515L470 356H318Q332 391 348
433T383 515Z" />
<glyph unicode="B" horiz-adv-x="542" d="M281 0Q324 0 365 11T438 46Q469 68 488 101T507 180Q507 216 495 245T464 296Q444 318 418 332T363 352Q423 369 452 416T482 525Q482 571 466 604T422 659Q393 680 353 690T263 700H35V621H80V79H35V0H281ZM163 313H260Q291
313 321 306T374 285Q396 270 410 247T424 193Q424 164 412 143T380 108Q359 93 332 86T274 79H163V313ZM163 621H269Q296 621 319 616T359 599Q378 586 388 565T399 512Q399 458 365 425T271 392H163V621Z" />
<glyph unicode="C" horiz-adv-x="610" d="M574 42L529 108Q498 90 464 81T392 71Q335 71 286 93T199 153Q161 190 140 241T118 349Q118 406 139 457T199 547Q236 585 285 607T392 629Q419 629 445 624T496 607V546H575V658Q534 682 489 695T392 708Q318 708 253
680T140 603Q91 554 63 489T35 349Q35 275 63 210T140 97Q188 48 253 20T392 -8Q443 -8 488 5T574 42Z" />
<glyph unicode="D" horiz-adv-x="632" d="M211 0Q317 0 390 32T510 116Q556 166 576 228T597 349Q597 430 569 494T493 605Q445 651 381 675T245 700H35V621H82V80H35V0H211ZM165 621H235Q294 621 345 602T434 548Q471 512 492 462T514 350Q514 288 493 239T434
154Q396 118 345 99T235 80H165V621Z" />
<glyph unicode="E" horiz-adv-x="571" d="M536 0V154H457V79H174V313H483V392H174V621H443V546H522V700H35V621H91V79H35V0H536Z" />
<glyph unicode="F" horiz-adv-x="557" d="M277 0V79H174V313H483V392H174V621H443V546H522V700H35V621H91V79H35V0H277Z" />
<glyph unicode="G" horiz-adv-x="609" d="M574 40V298H388V219H491V87Q468 78 443 74T392 69Q335 69 286 91T199 151Q161 188 140 239T118 347Q118 404 139 455T199 545Q236 583 285 605T392 627Q430 627 464 617T529 589L575 656Q534 680 489 693T392 706Q318
706 253 678T140 601Q91 552 63 487T35 347Q35 273 63 208T140 95Q188 46 253 18T392 -10Q443 -10 488 3T574 40Z" />
<glyph unicode="H" horiz-adv-x="772" d="M277 0V79H197V313H575V79H495V0H737V79H658V621H737V700H495V621H575V392H197V621H277V700H35V621H114V79H35V0H277Z" />
<glyph unicode="I" horiz-adv-x="312" d="M277 0V79H197V621H277V700H35V621H114V79H35V0H277Z" />
<glyph unicode="J" horiz-adv-x="311" d="M207 -82Q239 -52 257 -9T276 90V700H35V621H193V93Q193 56 181 27T149 -21Q128 -41 99 -52T35 -65V-144Q86 -143 130 -127T207 -82Z" />
<glyph unicode="K" horiz-adv-x="686" d="M277 0V79H195V304L257 363Q313 291 368 221T481 79H429V0H651V79H579Q512 164 446 247T312 416L527 621H610V700H388V621H425L211 417L192 394Q193 402 194 410T195 426V621H257V700H35V621H112V79H35V0H277Z" />
<glyph unicode="L" horiz-adv-x="571" d="M536 0V154H457V79H174V621H257V700H35V621H91V79H35V0H536Z" />
<glyph unicode="M" horiz-adv-x="976" d="M277 0V79H205V470Q205 478 204 486T202 502Q207 493 211 487T223 472L488 125L742 456Q750 467 758 479T774 502Q773 494 773 486T771 470V79H699V0H941V79H854V621H941V700H829Q743 589 659 479T488 257Q402 368 318
478T147 700H35V621H122V79H35V0H277Z" />
<glyph unicode="N" horiz-adv-x="855" d="M733 621H820V700H578V621H650V183L653 151L634 177L151 700H35V621H122V79H35V0H277V79H205V506L202 538L221 512L733 -32V621Z" />
<glyph unicode="O" horiz-adv-x="786" d="M645 97Q694 145 722 210T751 349Q751 422 723 487T645 602Q596 651 531 679T392 708Q318 708 253 680T140 602Q91 553 63 488T35 349Q35 275 63 210T140 97Q188 48 253 20T392 -8Q465 -8 530 20T645 97ZM199 153Q161
190 140 240T118 349Q118 407 139 457T199 546Q236 584 286 606T393 628Q450 628 500 606T588 546Q625 508 646 458T668 349Q668 291 647 241T588 153Q550 115 500 93T393 71Q336 71 286 93T199 153Z" />
<glyph unicode="P" horiz-adv-x="517" d="M277 0V79H163V312H272Q374 312 428 365T482 510Q482 561 458 597T398 656Q362 679 321 689T245 700H35V621H80V79H35V0H277ZM163 621H251Q282 621 309 612T357 588Q376 572 387 552T399 510Q399 491 392 470T368 432Q351
415 323 404T250 392H163V621Z" />
<glyph unicode="Q" horiz-adv-x="808" d="M199 153Q161 190 140 241T118 349Q118 406 139 457T199 547Q236 585 285 607T392 629Q449 629 499 607T587 547Q624 508 646 457T668 349Q668 292 646 241T587 153Q549 115 499 93T392 71Q335 71 286 93T199 153ZM466
0H773V79H626Q649 99 669 122T704 173Q726 211 738 256T751 349Q751 423 723 488T646 602Q597 651 532 679T392 708Q318 708 253 680T140 602Q91 554 63 489T35 349Q35 275 63 210T140 96Q188 48 253 20T392 -8Q410 -8 428 -6T466 0Z" />
<glyph unicode="R" horiz-adv-x="576" d="M277 0V79H163V312H205Q219 312 226 312T248 313L395 0H541V79H447L335 319Q407 335 444 385T482 510Q482 561 458 597T398 656Q362 679 321 689T245 700H35V621H80V79H35V0H277ZM163 621H251Q282 621 309 612T357 588Q376
572 387 552T399 510Q399 491 392 470T368 432Q351 415 323 404T250 392H163V621Z" />
<glyph unicode="S" horiz-adv-x="478" d="M398 44Q426 70 442 106T459 187Q459 260 433 302T365 364Q319 386 269 400T183 434Q160 447 146 465T132 514Q132 536 138 555T158 590Q172 606 194 615T246 625Q276 625 301 619T345 605V546H424V644Q400 664 376 676T328
694Q305 700 284 702T245 704Q190 704 152 687T91 643Q68 616 58 583T49 517Q50 455 74 421T136 368Q172 349 214 338T292 312Q315 301 332 289T363 255Q371 242 373 224T376 188Q376 159 365 137T336 100Q317 86 293 79T243 71Q198 71 162 85T100 120V209H21V93Q34
73 57 55T111 23Q141 9 177 1T251 -8Q293 -8 331 5T398 44Z" />
<glyph unicode="T" horiz-adv-x="623" d="M427 0V79H354V621H509V546H588V700H35V546H114V621H271V79H185V0H427Z" />
<glyph unicode="U" horiz-adv-x="729" d="M544 52Q578 81 597 125T617 226V621H694V700H452V621H534V229Q534 191 521 162T486 112Q463 92 432 82T364 71Q327 71 296 81T243 112Q220 132 208 161T195 229V621H277V700H35V621H112V226Q112 169 131 125T184 52Q218
22 264 7T364 -8Q418 -8 464 7T544 52Z" />
<glyph unicode="V" horiz-adv-x="810" d="M676 621H775V700H533V621H592Q546 511 501 403T408 185L399 152L390 185Q343 294 298 403T205 621H277V700H35V621H122Q191 456 260 295T399 -32Q468 133 537 294T676 621Z" />
<glyph unicode="W" horiz-adv-x="1178" d="M496 192Q522 249 546 311T585 420L595 385L772 -32Q841 133 910 294T1049 621H1143V700H901V621H965Q919 511 874 403T781 185L772 152L763 185Q716 294 671 403T578 621H645V700H403V621H495Q507 592 519 564T544 506Q526
463 508 419T471 331Q451 286 431 237T399 152L390 185Q343 294 298 403T205 621H277V700H35V621H122Q191 456 260 295T399 -32Q422 22 446 78T496 192Z" />
<glyph unicode="X" horiz-adv-x="694" d="M277 0V79H213Q242 124 271 168T329 258L342 286Q346 279 349 272T356 258L472 79H417V0H659V79H576Q531 148 487 215T398 351Q443 418 486 485T573 621H659V700H417V621H472L360 449L347 422L334 449Q306 492 278 534T222
621H277V700H35V621H120L292 357L110 79H35V0H277Z" />
<glyph unicode="Y" horiz-adv-x="789" d="M519 0V79H446V269Q498 357 549 445T653 621H754V700H512V621H551L407 377L395 346H394L383 377Q346 438 310 499T237 621H277V700H35V621H136Q188 533 239 446T344 270V79H277V0H519Z" />
<glyph unicode="Z" horiz-adv-x="629" d="M594 0V242H515V80H137L565 621V700H134V735H51V621H463L35 80V0H594Z" />
<glyph unicode="[" horiz-adv-x="338" d="M275 -149V-68H166V665H275V746H83V-149H275Z" />
<glyph unicode="\" horiz-adv-x="385" d="M372 -19Q302 171 233 358T94 736H0Q70 546 139 359T278 -19H372Z" />
<glyph unicode="]" horiz-adv-x="342" d="M251 -149V746H59V665H168V-68H59V-149H251Z" />
<glyph unicode="^" horiz-adv-x="470" d="M171 479Q186 497 201 515T232 551Q247 533 262 515T293 479H352Q322 524 292 569T232 660Q202 615 172 570T112 479H171Z" />
<glyph unicode="_" horiz-adv-x="600" d="M500 0V81H100V0H500Z" />
<glyph unicode="`" horiz-adv-x="200" d="M123 479Q100 512 78 545T33 612H-51Q-22 579 6 546T64 479H123Z" />
<glyph unicode="a" horiz-adv-x="547" d="M512 0V79H436V375H367Q367 363 366 351T363 328Q355 345 323 364T236 384Q194 384 157 368T93 325Q66 298 51 262T35 187Q35 147 50 112T93 49Q120 22 157 7T236 -9Q265 -9 288 -3T328 13Q344 21 353 29T363 40Q363 33
363 30T363 20V0H512ZM236 303Q261 303 281 295T318 273Q334 258 343 236T353 188Q353 162 344 140T317 102Q302 88 282 80T236 72Q214 72 195 78T162 96Q142 112 131 136T119 188Q119 212 126 232T148 267Q163 284 186 293T236 303Z" />
<glyph unicode="b" horiz-adv-x="547" d="M35 0H184V20Q184 27 184 30T184 40Q185 37 194 29T220 13Q236 4 259 -2T311 -9Q353 -9 390 6T454 49Q481 76 496 112T512 188Q512 228 497 263T454 326Q427 353 390 368T311 384Q285 384 263 377T223 361Q206 352 199
346T191 336Q193 344 193 349T194 362V750H45V671H111V79H35V0ZM311 303Q335 303 355 296T391 275Q408 260 418 238T428 188Q428 163 419 142T395 104Q379 89 358 81T311 72Q287 72 267 80T230 101Q213 117 204 139T194 188Q194 211 201 231T223 267Q238 284 260
293T311 303Z" />
<glyph unicode="c" horiz-adv-x="397" d="M360 34L310 97Q294 84 276 78T235 72Q210 72 189 80T152 103Q136 119 127 141T118 188Q118 215 127 237T155 275Q170 288 190 295T235 303Q249 303 262 301T288 292V225H362V341Q336 361 304 372T235 384Q193 384 157
369T93 326Q66 300 51 264T35 188Q35 147 50 112T93 49Q120 22 156 7T235 -9Q271 -9 302 2T360 34Z" />
<glyph unicode="d" horiz-adv-x="547" d="M512 0V79H436V750H287V671H353V378Q353 371 353 359T356 338Q354 341 347 346T323 361Q306 370 284 377T236 384Q194 384 157 369T93 326Q66 299 51 264T35 188Q35 148 50 112T93 49Q120 22 157 7T236 -9Q265 -9 288
-3T328 13Q344 21 353 29T363 40Q363 33 363 30T363 20V0H512ZM236 303Q259 303 279 296T314 277Q332 262 342 239T353 188Q353 162 343 139T316 101Q300 87 280 80T236 72Q212 72 192 79T156 101Q139 116 129 139T119 188Q119 213 127 233T150 270Q166 285 188
294T236 303Z" />
<glyph unicode="e" horiz-adv-x="450" d="M235 303Q256 303 273 293T305 265Q258 248 212 231T118 196Q119 217 126 235T146 267Q162 284 184 293T235 303ZM362 44L311 104Q296 88 277 80T235 72Q204 72 180 84T140 118Q208 143 275 168T411 218Q402 254 385 284T346
337Q323 359 295 371T235 384Q193 384 157 369T93 327Q66 300 51 264T35 188Q35 147 50 112T93 49Q120 22 156 7T235 -9Q273 -9 305 5T362 44Z" />
<glyph unicode="f" horiz-adv-x="336" d="M257 0V79H178V294H296V375H178V514Q178 552 190 581T224 630Q245 649 273 659T336 672V751Q285 749 241 734T164 688Q132 659 114 616T95 517V375H35V294H96V79H35V0H257Z" />
<glyph unicode="g" horiz-adv-x="547" d="M78 -190Q108 -211 150 -230T237 -250Q279 -250 315 -235T378 -194Q405 -169 420 -135T436 -60V296H512V375H367Q365 361 364 350T363 328Q351 347 318 365T236 384Q194 384 157 368T93 325Q66 298 51 262T35 187Q35 147
50 112T93 50Q120 23 157 8T236 -8Q263 -8 285 -3T323 10Q335 16 344 22T356 34Q354 28 354 21T353 12V-47Q353 -72 345 -93T320 -130Q304 -146 283 -155T235 -164Q206 -164 180 -151T133 -122L78 -190ZM236 303Q259 303 279 296T314 277Q332 261 342 239T353 188Q353
164 345 143T322 107Q307 91 285 82T236 72Q211 72 191 80T154 102Q138 118 129 140T119 188Q119 211 126 231T147 266Q162 283 185 293T236 303Z" />
<glyph unicode="h" horiz-adv-x="580" d="M257 0V79H194V182Q194 208 205 230T234 268Q252 284 275 293T325 302Q363 300 380 281T400 234V79H323V0H545V79H483V272Q481 322 447 353T354 384Q297 381 255 355T191 279L194 324V750H35V671H111V79H35V0H257Z" />
<glyph unicode="i" horiz-adv-x="292" d="M257 0V79H188V375H35V296H105V79H35V0H257ZM199 520Q199 543 183 558T148 573Q128 573 112 558T96 520Q96 497 112 483T148 468Q167 468 183 482T199 520Z" />
<glyph unicode="j" horiz-adv-x="212" d="M177 0V375H35V296H94V3Q94 -39 80 -69T40 -119L97 -181Q135 -152 156 -107T177 0ZM190 520Q190 543 174 558T139 573Q119 573 103 558T87 520Q87 497 103 483T139 468Q158 468 174 482T190 520Z" />
<glyph unicode="k" horiz-adv-x="527" d="M35 0H257V79H194V114L243 160Q257 140 272 120T302 79H291V0H492V79H399Q374 113 350 146T301 214Q323 234 344 255T387 296H449V375H248V296H285L194 211V750H45V671H111V79H35V0Z" />
<glyph unicode="l" horiz-adv-x="292" d="M257 0V79H194V750H45V671H111V79H35V0H257Z" />
<glyph unicode="m" horiz-adv-x="870" d="M257 0V79H194V182Q194 208 205 230T234 268Q252 284 275 293T325 302Q363 300 380 281T400 234V79H324V0H546V79H483V182Q483 208 494 230T523 268Q541 284 564 293T614 302Q652 300 669 281T689 234V79H613V0H835V79H772V272Q770
322 736 353T643 384Q588 382 546 356T482 284Q476 329 443 356T354 384Q297 382 255 355T191 279Q189 303 188 322T184 366V375H45V296H111V79H35V0H257Z" />
<glyph unicode="n" horiz-adv-x="580" d="M257 0V79H194V182Q194 208 205 230T234 268Q252 284 275 293T325 302Q363 300 380 281T400 234V79H323V0H545V79H483V272Q481 322 447 353T354 384Q300 384 256 356T191 279Q189 303 188 322T184 366V375H45V296H111V79H35V0H257Z"
/>
<glyph unicode="o" horiz-adv-x="471" d="M378 49Q405 76 420 111T436 188Q436 228 421 264T378 327Q351 353 314 368T235 384Q193 384 157 369T93 327Q66 300 51 264T35 188Q35 147 50 112T93 49Q120 22 156 7T235 -9Q277 -9 314 6T378 49ZM152 106Q136 121 127
142T118 187Q118 211 127 232T152 269Q167 285 188 294T233 303Q257 303 278 294T315 269Q331 253 340 232T349 187Q349 163 340 142T315 106Q299 90 278 81T233 72Q209 72 188 81T152 106Z" />
<glyph unicode="p" horiz-adv-x="548" d="M45 -250H267V-171H195V19Q195 21 195 25T193 32Q196 28 202 24T224 11Q240 3 262 -3T312 -9Q354 -9 391 6T455 49Q482 76 497 112T513 188Q513 228 498 263T455 326Q428 353 391 368T312 384Q259 384 227 363T185 328Q184
339 183 350T181 375H35V296H112V-171H45V-250ZM312 303Q335 303 355 296T390 277Q408 261 418 239T429 188Q429 161 419 138T391 100Q376 87 356 80T312 72Q288 72 268 80T232 101Q214 117 205 139T195 188Q195 212 203 233T226 269Q241 285 263 294T312 303Z"
/>
<glyph unicode="q" horiz-adv-x="551" d="M499 -250V-171H436V296H516V375H367Q366 361 365 350T363 328Q349 347 319 365T236 384Q194 384 157 369T93 326Q66 299 51 264T35 188Q35 148 50 112T93 49Q120 22 157 7T236 -9Q263 -9 285 -4T323 10Q339 18 346 23T356
33Q354 27 354 22T353 12V-171H277V-250H499ZM236 303Q261 303 281 295T318 273Q334 258 343 236T353 188Q353 163 345 142T320 105Q305 90 284 81T236 72Q213 72 194 79T159 98Q140 114 130 137T119 188Q119 213 127 234T152 271Q167 286 188 294T236 303Z" />
<glyph unicode="r" horiz-adv-x="370" d="M257 0V79H194V182Q194 213 207 238T245 279Q261 290 282 296T329 302L335 384Q320 384 301 377T260 356Q240 343 222 324T191 279Q189 303 189 301T188 323L184 375H45V296H111V79H35V0H257Z" />
<glyph unicode="s" horiz-adv-x="332" d="M276 37Q290 56 295 76T301 110Q301 141 290 161T262 196Q245 209 225 218T188 234Q170 241 157 248T142 268Q141 276 143 282T150 294Q155 298 163 300T182 303Q190 303 197 302T212 298V255H286V342Q275 354 261 362T231
375Q216 380 202 382T177 384Q160 384 139 378T100 358Q82 345 70 324T58 272Q58 237 70 216T100 184Q119 172 140 166T178 152Q196 146 206 137T217 109Q217 99 214 93T205 82Q198 77 190 75T173 73Q156 73 145 74T121 81V120H47V33Q67 11 101 2T172 -8Q212 -8
237 5T276 37Z" />
<glyph unicode="t" horiz-adv-x="335" d="M277 0V79H202V294H300V375H202V619H119V375H35V294H119V0H277Z" />
<glyph unicode="u" horiz-adv-x="570" d="M393 96L390 51V0H535V70H473V375H324V296H390V193Q390 167 379 145T350 107Q332 91 309 82T259 73Q221 75 204 94T184 141V375H35V296H101V103Q103 53 137 22T230 -9Q284 -9 328 19T393 96Z" />
<glyph unicode="v" horiz-adv-x="584" d="M466 296H549V375H320V296H380Q354 252 331 208T293 120Q279 164 255 208T205 296H257V375H35V296H119Q163 216 206 137T293 -23Q336 57 379 136T466 296Z" />
<glyph unicode="w" horiz-adv-x="830" d="M425 240L558 -23Q598 57 638 136T719 296H795V375H581V296H637Q614 252 594 209T558 120Q543 165 522 208T479 296H536V375H314V296H381L384 292Q361 251 341 214T291 120Q281 150 255 201T207 296H242V375H35V296H124Q165
216 205 137T286 -23L425 240Z" />
<glyph unicode="x" horiz-adv-x="526" d="M234 0V79H214Q224 93 234 106T254 133Q264 119 273 106T294 79H269V0H491V79H399Q381 102 364 125T329 173L418 296H491V375H292V296H319L277 237L234 296H257V375H35V296H134Q151 273 168 249T203 202Q180 171 158 141T112
79H35V0H234Z" />
<glyph unicode="y" horiz-adv-x="617" d="M314 -250V-171H265Q324 -53 382 62T500 296H582V375H353V296H415Q386 241 358 186T310 74Q291 130 262 185T204 296H257V375H35V296H119Q157 221 193 148T268 0Q246 -42 225 -85T182 -171H92V-250H314Z" />
<glyph unicode="z" horiz-adv-x="435" d="M400 0V138H326V81H152Q213 139 262 186T377 294V375H121V410H47V296H260Q195 235 146 188T35 81V0H400Z" />
<glyph unicode="{" horiz-adv-x="320" d="M290 -149V-68H246Q231 -68 221 -64T205 -49Q199 -38 197 -18T194 35V164Q194 194 188 216T171 255Q161 271 150 281T129 298Q139 304 150 314T171 341Q181 357 187 379T194 433V562Q194 594 196 614T205 646Q211 657
221 661T246 665H290V746H227Q203 746 182 745T144 734Q128 723 119 699T109 628V472Q109 452 106 429T94 385Q85 365 70 352T30 337V256Q54 255 69 242T94 208Q103 188 106 165T109 121V-31Q109 -78 118 -102T145 -136Q161 -147 182 -148T227 -149H290Z" />
<glyph unicode="|" horiz-adv-x="271" d="M175 -232V700H91V-232H175Z" />
<glyph unicode="}" horiz-adv-x="320" d="M93 -149Q117 -149 138 -148T176 -136Q192 -126 201 -102T211 -31V121Q211 141 214 164T227 208Q235 228 250 241T290 256V337Q266 338 251 351T227 385Q218 405 215 428T211 472V628Q211 675 202 699T176 734Q159 744
138 745T93 746H30V665H74Q89 665 99 661T115 646Q121 634 123 614T126 562V433Q126 402 132 380T149 341Q158 325 169 315T191 298Q182 292 171 282T149 255Q139 239 133 217T126 164V35Q126 3 124 -17T115 -49Q109 -60 99 -64T74 -68H30V-149H93Z" />
<glyph unicode="~" horiz-adv-x="489" d="M407 472Q420 483 429 499T439 536L394 539Q392 525 387 516T373 502Q365 497 357 495T341 493Q327 493 316 498T289 519Q273 535 254 543T212 552Q197 552 182 546T153 528Q140 517 131 501T121 464L166 461Q167 471
170 478T178 490Q187 500 198 503T219 507Q233 507 244 502T271 481Q287 466 306 458T348 449Q363 449 378 455T407 472Z" />
<glyph unicode="&#xa0;" horiz-adv-x="300" />
<glyph unicode="&#xa1;" horiz-adv-x="200" d="M151 487Q151 464 135 450T100 435Q80 435 64 449T48 487Q48 510 64 525T100 540Q119 540 135 525T151 487ZM141 374V-210H58V374H141Z" />
<glyph unicode="&#xa2;" horiz-adv-x="385" d="M263 -68V-7Q293 -2 316 7T361 34L311 97Q301 89 289 83T263 74V300Q270 298 276 297T288 292V225H362V341Q341 357 317 368T263 382V438H179V376Q148 367 122 349T76 306Q57 281 47 251T36 188Q36 155 46 125T76
70Q95 45 121 27T179 0V-68H263ZM119 188Q119 205 123 221T135 249Q143 262 154 272T179 289V85Q170 90 162 96T148 109Q134 124 127 144T119 188Z" />
<glyph unicode="&#xa3;" horiz-adv-x="574" d="M547 0V178H463V81H188Q204 95 206 114T209 163V273H326V354H209V478Q209 502 218 516T244 539Q261 547 281 550T336 553Q364 553 386 547T420 531Q431 522 438 513T450 497L513 534Q493 574 450 604T331 634Q226
634 176 602T125 500V354H60V273H125V181Q125 149 123 130T115 99Q109 88 99 85T73 81H29V0H547Z" />
<glyph unicode="&#xa4;" horiz-adv-x="500" d="M171 360Q171 376 177 390T194 416Q204 426 218 432T248 438Q263 438 276 433T299 419Q312 408 319 393T326 360Q326 344 320 330T304 306Q293 295 279 289T248 283Q233 283 220 288T196 303Q184 313 178 328T171
360ZM169 221Q187 212 206 207T247 202Q269 202 289 207T326 222L352 197L411 256L387 280Q399 299 404 319T410 361Q410 382 405 402T388 441L410 463L351 522L327 498Q309 508 289 513T247 519Q225 519 206 513T168 498L144 522L85 463L108 439Q98 422 93 403T87
361Q87 339 92 319T109 279L85 255L144 196L169 221Z" />
<glyph unicode="&#xa5;" horiz-adv-x="638" d="M207 0H449V79H376V130H493V211H376V263H492V344H420L583 621H684V700H442V621H481L337 377L325 346H324L313 377L167 621H207V700H-35V621H66L230 344H159V263H274V211H159V130H274V79H207V0Z" />
<glyph unicode="&#xa6;" horiz-adv-x="215" d="M153 -233V117H69V-233H153ZM153 350V700H69V350H153Z" />
<glyph unicode="&#xa7;" horiz-adv-x="500" d="M194 360Q194 372 198 383T210 403Q219 413 231 418T258 424Q270 424 280 420T299 409Q309 401 315 388T322 360Q322 346 317 334T302 313Q293 305 282 301T258 296Q247 296 237 299T219 309Q208 317 201 330T194
360ZM305 -6Q323 7 334 23T346 60Q346 77 337 103T310 157L275 214Q284 215 292 217T309 223Q327 229 341 240T367 264Q383 284 391 307T400 357Q400 378 395 396T380 431L290 580Q279 599 274 612T268 635Q268 646 274 654T294 670Q307 677 313 681T333 692Q322
709 312 727T291 762Q273 751 252 740T214 716Q196 704 184 689T172 652Q172 640 177 623T192 584Q202 564 214 543T240 500Q231 499 222 497T205 492Q188 486 174 476T148 452Q133 432 125 408T117 358Q117 333 126 308T150 258L217 148Q233 122 241 104T249 75Q249
64 243 57T225 43Q212 35 206 32T186 20Q197 3 207 -15T228 -50Q246 -39 266 -29T305 -6Z" />
<glyph unicode="&#xa8;" horiz-adv-x="370" d="M318 520Q318 543 302 558T267 573Q247 573 231 558T215 520Q215 497 231 483T267 468Q286 468 302 482T318 520ZM152 520Q152 543 136 558T101 573Q81 573 65 558T49 520Q49 497 65 483T101 468Q120 468 136 482T152 520Z" />
<glyph unicode="&#xa9;" horiz-adv-x="793" d="M241 212Q211 242 194 283T177 372Q177 421 194 462T241 533Q271 563 312 580T400 597Q447 597 488 580T559 533Q589 503 606 462T623 372Q623 324 606 283T559 212Q529 182 488 165T400 148Q353 148 312 165T241
212ZM586 186Q621 221 642 268T663 372Q663 429 642 477T586 560Q550 595 502 614T400 634Q346 634 298 615T215 560Q179 525 158 477T137 372Q137 316 158 269T215 186Q250 151 298 131T400 111Q454 111 502 131T586 186ZM500 236L480 266Q466 258 451 254T418
249Q392 249 370 259T331 286Q314 303 304 326T294 375Q294 401 304 424T331 465Q347 482 369 492T418 502Q430 502 442 500T465 492V464H501V515Q482 526 461 531T418 537Q385 537 356 525T304 490Q282 468 270 439T257 375Q257 342 269 313T304 261Q326 239 355
226T418 213Q441 213 461 219T500 236Z" />
<glyph unicode="&#xaa;" horiz-adv-x="585" d="M427 306V363H373V576H323Q322 566 322 559T320 543Q314 554 289 568T228 583Q198 583 172 572T126 541Q106 521 95 495T83 441Q83 412 94 387T126 342Q145 322 171 311T228 300Q249 300 265 304T294 315Q306 321
312 327T320 335Q320 330 320 328T320 320V306H427ZM228 525Q246 525 261 520T287 504Q299 493 306 477T313 442Q313 422 306 406T285 378Q275 369 260 364T228 358Q210 358 195 364T168 381Q157 392 151 408T144 442Q144 458 149 472T164 498Q175 510 191 517T228
525Z" />
<glyph unicode="&#xab;" horiz-adv-x="601" d="M288 239L459 77V172Q442 189 427 205T394 239Q411 256 426 272T459 306V400Q416 359 374 320T288 239ZM117 239L288 77V172Q271 189 256 205T223 239Q240 256 255 272T288 305V400Q245 359 203 320T117 239Z" />
<glyph unicode="&#xac;" horiz-adv-x="559" d="M460 148V248H100V188H376V148H460Z" />
<glyph unicode="&#xad;" horiz-adv-x="300" d="M237 147V228H53V147H237Z" />
<glyph unicode="&#xae;" horiz-adv-x="801" d="M241 212Q211 242 194 283T177 372Q177 421 194 462T241 533Q271 563 312 580T400 597Q447 597 488 580T559 533Q589 503 606 462T623 372Q623 324 606 283T559 212Q529 182 488 165T400 148Q353 148 312 165T241
212ZM586 186Q621 221 642 268T663 372Q663 429 642 477T586 560Q550 595 502 614T400 634Q346 634 298 615T215 560Q179 525 158 477T137 372Q137 316 158 269T215 186Q250 151 298 131T400 111Q454 111 502 131T586 186ZM414 210V247H360V358H380Q387 358 390
358T401 358L470 210H539V247H495L442 360Q476 368 494 392T512 451Q512 475 501 492T472 520Q454 531 435 536T399 541H300V504H321V247H300V210H414ZM360 504H402Q432 504 452 488T472 451Q472 442 469 432T458 414Q450 406 437 401T402 395H360V504Z" />
<glyph unicode="&#xaf;" horiz-adv-x="399" d="M315 478V531H85V478H315Z" />
<glyph unicode="&#xb0;" horiz-adv-x="282" d="M90 559Q90 569 93 578T104 593Q110 600 119 604T138 608Q148 608 156 605T172 594Q179 587 183 578T187 559Q187 548 183 539T170 523Q163 517 155 514T138 511Q129 511 121 514T105 524Q98 530 94 539T90 559ZM238
560Q238 581 230 599T209 631Q195 644 177 652T138 660Q117 660 98 652T66 631Q52 617 44 599T36 560Q36 539 44 521T66 489Q79 475 98 468T138 460Q159 460 177 467T209 489Q222 502 230 520T238 560Z" />
<glyph unicode="&#xb1;" horiz-adv-x="524" d="M308 211V350H446V431H308V571H224V431H86V350H224V211H308ZM446 100V181H86V100H446Z" />
<glyph unicode="&#xb2;" horiz-adv-x="398" d="M323 375V461H284V415H203Q223 437 241 459T273 504Q287 527 295 550T304 597Q304 618 297 636T277 669Q263 683 245 691T203 700Q178 700 159 692T126 670Q113 656 107 638T100 600Q100 580 109 558T136 523L160
548Q151 558 146 570T141 600Q141 608 144 618T154 638Q160 647 172 653T203 660Q212 660 222 656T242 644Q251 635 257 623T263 591Q263 568 250 543T214 490Q192 463 164 435T104 375H323Z" />
<glyph unicode="&#xb3;" horiz-adv-x="419" d="M232 408Q247 422 255 441T264 483Q264 501 259 516T244 545Q234 558 221 567T191 583L261 700H99V637H138V660H193L124 541Q131 545 139 547T156 549Q170 549 182 544T203 530Q212 521 217 509T223 483Q223 469
218 457T203 436Q194 427 182 422T156 416Q141 416 129 422T107 439L77 411Q92 395 112 386T156 376Q178 376 197 384T232 408Z" />
<glyph unicode="&#xb4;" horiz-adv-x="274" d="M159 479Q188 512 216 545T274 612H190Q167 579 145 546T100 479H159Z" />
<glyph unicode="&#xb5;" horiz-adv-x="545" d="M165 -201V-3Q176 -6 187 -7T211 -9Q265 -9 309 19T374 96L371 51V0H516V70H454V375H305V296H371V193Q371 167 360 145T331 107Q313 91 290 82T240 73Q202 75 185 94T165 141V375H16V296H82V-201H165Z" />
<glyph unicode="&#xb6;" horiz-adv-x="547" d="M284 0V680H364V0H516V70H447V680H516V750H201Q167 750 137 737T85 702Q63 680 51 650T38 586Q38 552 50 522T85 470Q107 448 137 436T201 423V0H284Z" />
<glyph unicode="&#xb7;" horiz-adv-x="168" d="M137 282Q137 305 121 320T86 335Q66 335 50 320T34 282Q34 259 50 245T86 230Q105 230 121 244T137 282Z" />
<glyph unicode="&#xb8;" horiz-adv-x="452" d="M315 -142Q315 -117 307 -97T277 -61Q265 -51 250 -43T235 -7V0H184V-34Q184 -51 195 -61T219 -80Q231 -89 242 -100T253 -132Q253 -156 240 -172T203 -188Q183 -188 170 -178T152 -151Q141 -157 129 -163T106 -175Q119
-213 147 -231T210 -250Q261 -250 288 -222T315 -142Z" />
<glyph unicode="&#xb9;" horiz-adv-x="273" d="M164 401V437H128V700H58V663H89V437H53V401H164Z" />
<glyph unicode="&#xba;" horiz-adv-x="469" d="M338 342Q357 361 368 386T379 442Q379 470 368 496T338 542Q318 561 292 572T234 583Q204 583 178 572T133 542Q113 522 102 496T90 442Q90 412 101 387T133 342Q152 322 178 311T234 300Q265 300 291 311T338 342ZM174
382Q163 393 157 408T150 441Q150 458 156 473T174 500Q185 512 200 518T233 525Q250 525 265 519T293 500Q304 488 310 473T317 441Q317 424 311 409T293 382Q281 371 266 365T233 358Q216 358 201 364T174 382Z" />
<glyph unicode="&#xbb;" horiz-adv-x="601" d="M288 239L117 77V172Q134 189 149 205T182 239Q165 256 150 272T117 306V400Q160 359 202 320T288 239ZM459 239L288 77V172Q305 189 320 205T353 239Q336 256 321 272T288 305V400Q331 359 373 320T459 239Z" />
<glyph unicode="&#xbc;" horiz-adv-x="968" d="M340 -19Q410 171 479 358T618 736H534Q464 546 395 359T256 -19H340ZM835 0V59H773V136H845V197H773V490L501 136H711V59H655V0H835ZM711 308V197H626L711 308ZM285 234V290H229V695H121V638H169V290H113V234H285Z" />
<glyph unicode="&#xbd;" horiz-adv-x="1069" d="M285 234V290H229V695H121V638H169V290H113V234H285ZM861 0V123H805V57H689Q718 89 744 121T790 186Q810 218 822 251T835 319Q835 349 825 375T795 423Q776 443 749 455T689 467Q653 467 626 456T579 424Q560 404
551 378T541 323Q541 295 555 262T593 213L628 249Q615 263 608 281T601 323Q601 334 604 349T618 378Q628 391 645 400T689 410Q702 410 717 404T746 386Q759 374 767 356T776 311Q776 277 757 241T706 166Q674 127 633 86T548 0H861ZM340 -19Q410 171 479 358T618
736H534Q464 546 395 359T256 -19H340Z" />
<glyph unicode="&#xbe;" horiz-adv-x="1276" d="M382 248Q405 271 418 301T432 367Q432 395 424 419T400 464Q384 484 363 499T316 524L427 708H173V608H234V644H320L212 457Q223 464 235 467T262 470Q284 470 303 462T336 440Q350 426 358 407T367 367Q367 345
359 326T336 293Q322 278 303 270T262 261Q239 261 220 271T186 298L139 254Q162 229 193 214T262 199Q297 199 327 212T382 248ZM530 -19Q600 171 669 358T808 736H724Q654 546 585 359T446 -19H530ZM1034 0V59H972V136H1044V197H972V490L700 136H910V59H854V0H1034ZM910
308V197H825L910 308Z" />
<glyph unicode="&#xbf;" horiz-adv-x="452" d="M221 375V297Q221 270 212 252T189 219Q175 206 159 196T129 175Q84 141 58 100T31 2Q31 -38 46 -73T88 -135Q114 -162 150 -177T227 -193Q278 -193 313 -177T371 -138Q394 -115 407 -89T427 -40Q409 -33 391 -27T354
-13Q348 -33 341 -48T322 -76Q307 -94 284 -103T227 -112Q203 -112 183 -104T149 -82Q133 -67 125 -45T116 2Q116 39 133 71T186 130Q209 148 230 161T268 191Q285 206 295 226T305 278V375H221ZM213 487Q213 464 229 449T264 434Q284 434 300 449T316 487Q316
510 300 524T264 539Q245 539 229 525T213 487Z" />
<glyph unicode="&#xc0;" horiz-adv-x="788" d="M257 0V79H200Q228 145 242 178T284 277H504Q525 227 545 178T587 79H531V0H753V79H671Q602 244 533 405T394 732Q325 567 256 406T117 79H35V0H257ZM383 515Q384 518 386 525T393 548L403 515L470 356H318Q332 391
348 433T383 515ZM419 750Q396 783 374 816T329 883H245Q274 850 302 817T360 750H419Z" />
<glyph unicode="&#xc1;" horiz-adv-x="788" d="M425 750Q454 783 482 816T540 883H456Q433 850 411 817T366 750H425ZM257 0V79H200Q228 145 242 178T284 277H504Q525 227 545 178T587 79H531V0H753V79H671Q602 244 533 405T394 732Q325 567 256 406T117 79H35V0H257ZM383
515Q384 518 386 525T393 548L403 515L470 356H318Q332 391 348 433T383 515Z" />
<glyph unicode="&#xc2;" horiz-adv-x="788" d="M333 750Q348 768 363 786T394 822Q409 804 424 786T455 750H514Q484 795 454 840T394 931Q364 886 334 841T274 750H333ZM257 0V79H200Q228 145 242 178T284 277H504Q525 227 545 178T587 79H531V0H753V79H671Q602
244 533 405T394 732Q325 567 256 406T117 79H35V0H257ZM383 515Q384 518 386 525T393 548L403 515L470 356H318Q332 391 348 433T383 515Z" />
<glyph unicode="&#xc3;" horiz-adv-x="788" d="M520 776Q533 787 542 803T552 840L507 843Q505 829 500 820T486 806Q478 801 470 799T454 797Q440 797 429 802T402 823Q386 839 367 847T325 856Q310 856 295 850T266 832Q253 821 244 805T234 768L279 765Q280
775 283 782T291 794Q300 804 311 807T332 811Q346 811 357 806T384 785Q400 770 419 762T461 753Q476 753 491 759T520 776ZM257 0V79H200Q228 145 242 178T284 277H504Q525 227 545 178T587 79H531V0H753V79H671Q602 244 533 405T394 732Q325 567 256 406T117
79H35V0H257ZM383 515Q384 518 386 525T393 548L403 515L470 356H318Q332 391 348 433T383 515Z" />
<glyph unicode="&#xc4;" horiz-adv-x="788" d="M528 810Q528 833 512 848T477 863Q457 863 441 848T425 810Q425 787 441 773T477 758Q496 758 512 772T528 810ZM362 810Q362 833 346 848T311 863Q291 863 275 848T259 810Q259 787 275 773T311 758Q330 758 346
772T362 810ZM257 0V79H200Q228 145 242 178T284 277H504Q525 227 545 178T587 79H531V0H753V79H671Q602 244 533 405T394 732Q325 567 256 406T117 79H35V0H257ZM383 515Q384 518 386 525T393 548L403 515L470 356H318Q332 391 348 433T383 515Z" />
<glyph unicode="&#xc5;" horiz-adv-x="788" d="M257 0V79H200Q228 145 242 178T284 277H504Q525 227 545 178T587 79H531V0H753V79H671Q602 244 533 405T394 732Q325 567 256 406T117 79H35V0H257ZM383 515Q384 518 386 525T393 548L403 515L470 356H318Q332 391
348 433T383 515ZM361 837Q361 851 370 860T393 870Q407 870 416 861T426 837Q426 823 417 814T393 805Q379 805 370 814T361 837ZM480 838Q480 856 473 871T454 899Q442 911 427 918T393 925Q375 925 360 918T332 899Q320 887 313 872T306 838Q306 820 313 805T332
777Q344 765 359 758T393 751Q411 751 426 758T454 777Q466 789 473 804T480 838Z" />
<glyph unicode="&#xc6;" horiz-adv-x="777" d="M257 0V79H198Q218 126 237 171T277 264H392V0H742V154H663V79H475V313H689V392H475V621H649V546H728V700H378Q312 544 247 390T115 79H35V0H257ZM392 548V343H310Q331 394 354 445T392 548Z" />
<glyph unicode="&#xc7;" horiz-adv-x="572" d="M486 -142Q486 -117 478 -97T448 -61Q437 -53 425 -47T407 -22Q407 -21 407 -18T406 -8Q452 -6 494 7T574 42L529 108Q498 90 464 81T392 71Q335 71 286 93T199 153Q161 190 140 241T118 349Q118 406 139 457T199
547Q236 585 285 607T392 629Q419 629 445 624T496 607V436H575V658Q534 682 489 695T392 708Q318 708 253 680T140 603Q91 554 63 489T35 349Q35 280 59 218T128 109Q171 61 229 31T355 -6V-34Q355 -51 366 -61T390 -80Q402 -89 413 -100T424 -132Q424 -156 411
-172T374 -188Q354 -188 341 -178T323 -151L277 -175Q290 -213 318 -231T381 -250Q432 -250 459 -218T486 -142Z" />
<glyph unicode="&#xc8;" horiz-adv-x="571" d="M536 0V154H457V79H174V313H483V392H174V621H443V546H522V700H35V621H91V79H35V0H536ZM319 750Q296 783 274 816T229 883H145Q174 850 202 817T260 750H319Z" />
<glyph unicode="&#xc9;" horiz-adv-x="571" d="M536 0V154H457V79H174V313H483V392H174V621H443V546H522V700H35V621H91V79H35V0H536ZM322 750Q351 783 379 816T437 883H353Q330 850 308 817T263 750H322Z" />
<glyph unicode="&#xca;" horiz-adv-x="571" d="M536 0V154H457V79H174V313H483V392H174V621H443V546H522V700H35V621H91V79H35V0H536ZM239 750Q254 768 269 786T300 822Q315 804 330 786T361 750H420Q390 795 360 840T300 931Q270 886 240 841T180 750H239Z" />
<glyph unicode="&#xcb;" horiz-adv-x="571" d="M536 0V154H457V79H174V313H483V392H174V621H443V546H522V700H35V621H91V79H35V0H536ZM425 810Q425 833 409 848T374 863Q354 863 338 848T322 810Q322 787 338 773T374 758Q393 758 409 772T425 810ZM259 810Q259
833 243 848T208 863Q188 863 172 848T156 810Q156 787 172 773T208 758Q227 758 243 772T259 810Z" />
<glyph unicode="&#xcc;" horiz-adv-x="312" d="M277 0V79H197V621H277V700H35V621H114V79H35V0H277ZM174 750Q151 783 129 816T84 883H0Q29 850 57 817T115 750H174Z" />
<glyph unicode="&#xcd;" horiz-adv-x="312" d="M277 0V79H197V621H277V700H35V621H114V79H35V0H277ZM194 750Q223 783 251 816T309 883H225Q202 850 180 817T135 750H194Z" />
<glyph unicode="&#xce;" horiz-adv-x="312" d="M277 0V79H197V621H277V700H35V621H114V79H35V0H277ZM97 750Q112 768 127 786T158 822Q173 804 188 786T219 750H278Q248 795 218 840T158 931Q128 886 98 841T38 750H97Z" />
<glyph unicode="&#xcf;" horiz-adv-x="312" d="M277 0V79H197V621H277V700H35V621H114V79H35V0H277ZM292 810Q292 833 276 848T241 863Q221 863 205 848T189 810Q189 787 205 773T241 758Q260 758 276 772T292 810ZM126 810Q126 833 110 848T75 863Q55 863 39
848T23 810Q23 787 39 773T75 758Q94 758 110 772T126 810Z" />
<glyph unicode="&#xd0;" horiz-adv-x="632" d="M211 0Q317 0 390 32T510 116Q556 166 576 228T597 349Q597 430 569 494T493 605Q445 651 381 675T245 700H35V621H82V390H44V309H82V79H35V0H211ZM165 309H346V390H165V621H235Q294 621 345 602T434 548Q471 512
492 462T514 350Q514 288 493 238T434 153Q396 118 345 99T235 79H165V309Z" />
<glyph unicode="&#xd1;" horiz-adv-x="817" d="M733 621H820V700H578V621H650V183L653 151L634 177L151 700H35V621H122V79H35V0H277V79H205V506L202 538L221 512L733 -32V621ZM527 764Q540 775 549 791T559 828L514 831Q512 817 507 808T493 794Q485 789 477
787T461 785Q447 785 436 790T409 811Q393 827 374 835T332 844Q317 844 302 838T273 820Q260 809 251 793T241 756L286 753Q287 763 290 770T298 782Q307 792 318 795T339 799Q353 799 364 794T391 773Q407 758 426 750T468 741Q483 741 498 747T527 764Z" />
<glyph unicode="&#xd2;" horiz-adv-x="786" d="M645 97Q694 145 722 210T751 349Q751 422 723 487T645 602Q596 651 531 679T392 708Q318 708 253 680T140 602Q91 553 63 488T35 349Q35 275 63 210T140 97Q188 48 253 20T392 -8Q465 -8 530 20T645 97ZM199 153Q161
190 140 240T118 349Q118 407 139 457T199 546Q236 584 286 606T393 628Q450 628 500 606T588 546Q625 508 646 458T668 349Q668 291 647 241T588 153Q550 115 500 93T393 71Q336 71 286 93T199 153ZM433 750Q410 783 388 816T343 883H259Q288 850 316 817T374
750H433Z" />
<glyph unicode="&#xd3;" horiz-adv-x="786" d="M645 97Q694 145 722 210T751 349Q751 422 723 487T645 602Q596 651 531 679T392 708Q318 708 253 680T140 602Q91 553 63 488T35 349Q35 275 63 210T140 97Q188 48 253 20T392 -8Q465 -8 530 20T645 97ZM199 153Q161
190 140 240T118 349Q118 407 139 457T199 546Q236 584 286 606T393 628Q450 628 500 606T588 546Q625 508 646 458T668 349Q668 291 647 241T588 153Q550 115 500 93T393 71Q336 71 286 93T199 153ZM427 750Q456 783 484 816T542 883H458Q435 850 413 817T368
750H427Z" />
<glyph unicode="&#xd4;" horiz-adv-x="786" d="M645 97Q694 145 722 210T751 349Q751 422 723 487T645 602Q596 651 531 679T392 708Q318 708 253 680T140 602Q91 553 63 488T35 349Q35 275 63 210T140 97Q188 48 253 20T392 -8Q465 -8 530 20T645 97ZM199 153Q161
190 140 240T118 349Q118 407 139 457T199 546Q236 584 286 606T393 628Q450 628 500 606T588 546Q625 508 646 458T668 349Q668 291 647 241T588 153Q550 115 500 93T393 71Q336 71 286 93T199 153ZM336 750Q351 768 366 786T397 822Q412 804 427 786T458 750H517Q487
795 457 840T397 931Q367 886 337 841T277 750H336Z" />
<glyph unicode="&#xd5;" horiz-adv-x="786" d="M645 97Q694 145 722 210T751 349Q751 422 723 487T645 602Q596 651 531 679T392 708Q318 708 253 680T140 602Q91 553 63 488T35 349Q35 275 63 210T140 97Q188 48 253 20T392 -8Q465 -8 530 20T645 97ZM199 153Q161
190 140 240T118 349Q118 407 139 457T199 546Q236 584 286 606T393 628Q450 628 500 606T588 546Q625 508 646 458T668 349Q668 291 647 241T588 153Q550 115 500 93T393 71Q336 71 286 93T199 153ZM521 799Q534 810 543 826T553 863L508 866Q506 852 501 843T487
829Q479 824 471 822T455 820Q441 820 430 825T403 846Q387 862 368 870T326 879Q311 879 296 873T267 855Q254 844 245 828T235 791L280 788Q281 798 284 805T292 817Q301 827 312 830T333 834Q347 834 358 829T385 808Q401 793 420 785T462 776Q477 776 492 782T521
799Z" />
<glyph unicode="&#xd6;" horiz-adv-x="786" d="M645 97Q694 145 722 210T751 349Q751 422 723 487T645 602Q596 651 531 679T392 708Q318 708 253 680T140 602Q91 553 63 488T35 349Q35 275 63 210T140 97Q188 48 253 20T392 -8Q465 -8 530 20T645 97ZM199 153Q161
190 140 240T118 349Q118 407 139 457T199 546Q236 584 286 606T393 628Q450 628 500 606T588 546Q625 508 646 458T668 349Q668 291 647 241T588 153Q550 115 500 93T393 71Q336 71 286 93T199 153ZM533 810Q533 833 517 848T482 863Q462 863 446 848T430 810Q430
787 446 773T482 758Q501 758 517 772T533 810ZM367 810Q367 833 351 848T316 863Q296 863 280 848T264 810Q264 787 280 773T316 758Q335 758 351 772T367 810Z" />
<glyph unicode="&#xd7;" horiz-adv-x="500" d="M265 98L364 0L423 59L325 158L422 255L365 313L267 215L168 314L109 255L208 156L110 58L168 1L265 98Z" />
<glyph unicode="&#xd8;" horiz-adv-x="786" d="M118 349Q118 406 139 457T199 547Q236 585 285 607T392 629Q434 629 472 617T543 582Q453 477 365 374T186 166Q154 203 136 249T118 349ZM244 115Q334 220 422 323T600 531Q632 494 650 448T668 349Q668 292 646
241T587 153Q549 115 499 93T392 71Q350 71 313 82T244 115ZM191 53Q234 24 284 8T392 -8Q466 -8 531 20T646 97Q694 145 722 210T751 349Q751 420 725 483T654 594Q670 613 686 631T718 668Q704 681 689 693T660 719Q644 700 628 682T596 644Q552 674 501 691T392
708Q318 708 253 680T140 603Q91 554 63 489T35 349Q35 277 61 214T132 103Q117 86 103 69T73 34Q87 21 102 9T131 -17Q146 0 161 18T191 53Z" />
<glyph unicode="&#xd9;" horiz-adv-x="729" d="M544 52Q578 81 597 125T617 226V621H694V700H452V621H534V229Q534 191 521 162T486 112Q463 92 432 82T364 71Q327 71 296 81T243 112Q220 132 208 161T195 229V621H277V700H35V621H112V226Q112 169 131 125T184
52Q218 22 264 7T364 -8Q418 -8 464 7T544 52ZM387 750Q364 783 342 816T297 883H213Q242 850 270 817T328 750H387Z" />
<glyph unicode="&#xda;" horiz-adv-x="729" d="M544 52Q578 81 597 125T617 226V621H694V700H452V621H534V229Q534 191 521 162T486 112Q463 92 432 82T364 71Q327 71 296 81T243 112Q220 132 208 161T195 229V621H277V700H35V621H112V226Q112 169 131 125T184
52Q218 22 264 7T364 -8Q418 -8 464 7T544 52ZM399 750Q428 783 456 816T514 883H430Q407 850 385 817T340 750H399Z" />
<glyph unicode="&#xdb;" horiz-adv-x="729" d="M544 52Q578 81 597 125T617 226V621H694V700H452V621H534V229Q534 191 521 162T486 112Q463 92 432 82T364 71Q327 71 296 81T243 112Q220 132 208 161T195 229V621H277V700H35V621H112V226Q112 169 131 125T184
52Q218 22 264 7T364 -8Q418 -8 464 7T544 52ZM305 751Q320 769 335 787T366 823Q381 805 396 787T427 751H486Q456 796 426 841T366 932Q336 887 306 842T246 751H305Z" />
<glyph unicode="&#xdc;" horiz-adv-x="729" d="M544 52Q578 81 597 125T617 226V621H694V700H452V621H534V229Q534 191 521 162T486 112Q463 92 432 82T364 71Q327 71 296 81T243 112Q220 132 208 161T195 229V621H277V700H35V621H112V226Q112 169 131 125T184
52Q218 22 264 7T364 -8Q418 -8 464 7T544 52ZM500 810Q500 833 484 848T449 863Q429 863 413 848T397 810Q397 787 413 773T449 758Q468 758 484 772T500 810ZM334 810Q334 833 318 848T283 863Q263 863 247 848T231 810Q231 787 247 773T283 758Q302 758 318
772T334 810Z" />
<glyph unicode="&#xdd;" horiz-adv-x="789" d="M519 0V79H446V269Q498 357 549 445T653 621H754V700H512V621H551L407 377L395 346H394L383 377Q346 438 310 499T237 621H277V700H35V621H136Q188 533 239 446T344 270V79H277V0H519ZM431 750Q460 783 488 816T546
883H462Q439 850 417 817T372 750H431Z" />
<glyph unicode="&#xde;" horiz-adv-x="543" d="M277 0V79H189V147H298Q400 147 454 200T508 345Q508 396 484 432T424 491Q388 514 347 524T271 535H189V621H257V700H35V621H106V79H35V0H277ZM189 457H277Q308 457 335 448T383 424Q402 408 413 388T425 345Q425
326 418 305T394 267Q377 250 349 239T276 227H189V457Z" />
<glyph unicode="&#xdf;" horiz-adv-x="559" d="M459 54Q489 84 506 123T524 208Q524 243 514 274T484 332Q471 349 455 363T421 390Q441 410 453 437T465 497Q465 530 453 559T418 610Q396 632 367 644T305 657Q264 657 226 641T159 594Q130 564 113 521T95 423V415H35V334H95V79H35V0H178V418Q178
455 188 485T215 535Q232 554 253 564T303 576Q318 576 332 571T356 557Q368 546 375 530T382 497Q382 462 359 443T302 423V342Q330 342 355 332T400 303Q419 285 430 261T441 208Q441 180 430 156T400 112Q382 94 358 83T305 72Q292 72 279 75T253 83L219 9Q238
0 260 -4T305 -9Q350 -9 389 8T459 54Z" />
<glyph unicode="&#xe0;" horiz-adv-x="547" d="M512 0V79H436V375H367Q367 363 366 351T363 328Q355 345 323 364T236 384Q194 384 157 368T93 325Q66 298 51 262T35 187Q35 147 50 112T93 49Q120 22 157 7T236 -9Q265 -9 288 -3T328 13Q344 21 353 29T363 40Q363
33 363 30T363 20V0H512ZM236 303Q261 303 281 295T318 273Q334 258 343 236T353 188Q353 162 344 140T317 102Q302 88 282 80T236 72Q214 72 195 78T162 96Q142 112 131 136T119 188Q119 212 126 232T148 267Q163 284 186 293T236 303ZM278 479Q255 512 233 545T188
612H104Q133 579 161 546T219 479H278Z" />
<glyph unicode="&#xe1;" horiz-adv-x="547" d="M512 0V79H436V375H367Q367 363 366 351T363 328Q355 345 323 364T236 384Q194 384 157 368T93 325Q66 298 51 262T35 187Q35 147 50 112T93 49Q120 22 157 7T236 -9Q265 -9 288 -3T328 13Q344 21 353 29T363 40Q363
33 363 30T363 20V0H512ZM236 303Q261 303 281 295T318 273Q334 258 343 236T353 188Q353 162 344 140T317 102Q302 88 282 80T236 72Q214 72 195 78T162 96Q142 112 131 136T119 188Q119 212 126 232T148 267Q163 284 186 293T236 303ZM291 479Q320 512 348 545T406
612H322Q299 579 277 546T232 479H291Z" />
<glyph unicode="&#xe2;" horiz-adv-x="547" d="M512 0V79H436V375H367Q367 363 366 351T363 328Q355 345 323 364T236 384Q194 384 157 368T93 325Q66 298 51 262T35 187Q35 147 50 112T93 49Q120 22 157 7T236 -9Q265 -9 288 -3T328 13Q344 21 353 29T363 40Q363
33 363 30T363 20V0H512ZM236 303Q261 303 281 295T318 273Q334 258 343 236T353 188Q353 162 344 140T317 102Q302 88 282 80T236 72Q214 72 195 78T162 96Q142 112 131 136T119 188Q119 212 126 232T148 267Q163 284 186 293T236 303ZM200 479Q215 497 230 515T261
551Q276 533 291 515T322 479H381Q351 524 321 569T261 660Q231 615 201 570T141 479H200Z" />
<glyph unicode="&#xe3;" horiz-adv-x="547" d="M512 0V79H436V375H367Q367 363 366 351T363 328Q355 345 323 364T236 384Q194 384 157 368T93 325Q66 298 51 262T35 187Q35 147 50 112T93 49Q120 22 157 7T236 -9Q265 -9 288 -3T328 13Q344 21 353 29T363 40Q363
33 363 30T363 20V0H512ZM236 303Q261 303 281 295T318 273Q334 258 343 236T353 188Q353 162 344 140T317 102Q302 88 282 80T236 72Q214 72 195 78T162 96Q142 112 131 136T119 188Q119 212 126 232T148 267Q163 284 186 293T236 303ZM621 472Q634 483 643 499T653
536L608 539Q606 525 601 516T587 502Q579 497 571 495T555 493Q541 493 530 498T503 519Q487 535 468 543T426 552Q411 552 396 546T367 528Q354 517 345 501T335 464L380 461Q381 471 384 478T392 490Q401 500 412 503T433 507Q447 507 458 502T485 481Q501 466
520 458T562 449Q577 449 592 455T621 472Z" />
<glyph unicode="&#xe4;" horiz-adv-x="547" d="M512 0V79H436V375H367Q367 363 366 351T363 328Q355 345 323 364T236 384Q194 384 157 368T93 325Q66 298 51 262T35 187Q35 147 50 112T93 49Q120 22 157 7T236 -9Q265 -9 288 -3T328 13Q344 21 353 29T363 40Q363
33 363 30T363 20V0H512ZM236 303Q261 303 281 295T318 273Q334 258 343 236T353 188Q353 162 344 140T317 102Q302 88 282 80T236 72Q214 72 195 78T162 96Q142 112 131 136T119 188Q119 212 126 232T148 267Q163 284 186 293T236 303ZM377 520Q377 543 361 558T326
573Q306 573 290 558T274 520Q274 497 290 483T326 468Q345 468 361 482T377 520ZM211 520Q211 543 195 558T160 573Q140 573 124 558T108 520Q108 497 124 483T160 468Q179 468 195 482T211 520Z" />
<glyph unicode="&#xe5;" horiz-adv-x="547" d="M512 0V79H436V375H367Q367 363 366 351T363 328Q355 345 323 364T236 384Q194 384 157 368T93 325Q66 298 51 262T35 187Q35 147 50 112T93 49Q120 22 157 7T236 -9Q265 -9 288 -3T328 13Q344 21 353 29T363 40Q363
33 363 30T363 20V0H512ZM236 303Q261 303 281 295T318 273Q334 258 343 236T353 188Q353 162 344 140T317 102Q302 88 282 80T236 72Q214 72 195 78T162 96Q142 112 131 136T119 188Q119 212 126 232T148 267Q163 284 186 293T236 303ZM213 539Q213 553 222 562T245
572Q259 572 268 563T278 539Q278 525 269 516T245 507Q231 507 222 516T213 539ZM332 540Q332 558 325 573T306 601Q294 613 279 620T245 627Q227 627 212 620T184 601Q172 589 165 574T158 540Q158 522 165 507T184 479Q196 467 211 460T245 453Q263 453 278
460T306 479Q318 491 325 506T332 540Z" />
<glyph unicode="&#xe6;" horiz-adv-x="613" d="M352 242Q352 256 352 268T349 291Q361 297 374 299T402 302Q423 302 440 292T472 264Q442 253 412 242T352 220V242ZM119 106Q119 115 128 120T151 129Q165 132 181 133T212 134H268V108Q268 93 261 86T242 75Q231
72 218 72T194 71Q182 71 170 72T148 76Q136 80 128 87T119 106ZM304 15Q327 3 351 -3T402 -10Q440 -10 472 4T529 43L478 103Q463 87 444 79T402 71Q387 71 373 73T347 82Q350 94 351 105T352 129V133Q409 154 465 175T578 217Q569 253 552 283T513 336Q490 358
462 370T402 383Q378 383 355 378T309 361Q292 372 264 377T197 383Q178 383 157 379T116 367Q96 359 79 349T50 327Q61 313 72 301T94 274Q101 279 113 284T140 293Q154 297 168 299T196 302Q219 302 233 299T256 288Q263 280 265 270T268 244V220H179Q152 220
126 215T80 197Q59 184 47 163T35 110Q35 75 46 52T79 15Q100 1 129 -4T195 -10Q231 -10 258 -4T304 15Z" />
<glyph unicode="&#xe7;" horiz-adv-x="398" d="M315 -142Q315 -117 307 -97T277 -61Q263 -51 249 -43T235 -9Q271 -9 303 2T361 34L311 97Q296 84 277 78T236 72Q213 72 193 79T158 99Q140 115 130 138T119 188Q119 214 128 235T153 273Q169 287 190 295T236 303Q250
303 263 301T288 292V225H363V341Q337 361 305 372T236 384Q194 384 158 369T94 326Q67 300 52 264T36 188Q36 154 47 123T78 67Q97 42 124 24T184 -2V-34Q184 -51 195 -61T218 -80Q231 -89 242 -100T253 -132Q253 -156 240 -172T203 -188Q183 -188 170 -178T152
-151L106 -175Q119 -213 147 -231T210 -250Q262 -250 288 -217T315 -142Z" />
<glyph unicode="&#xe8;" horiz-adv-x="450" d="M235 303Q256 303 273 293T305 265Q258 248 212 231T118 196Q119 217 126 235T146 267Q162 284 184 293T235 303ZM362 44L311 104Q296 88 277 80T235 72Q204 72 180 84T140 118Q208 143 275 168T411 218Q402 254
385 284T346 337Q323 359 295 371T235 384Q193 384 157 369T93 327Q66 300 51 264T35 188Q35 147 50 112T93 49Q120 22 156 7T235 -9Q273 -9 305 5T362 44ZM254 479Q231 512 209 545T164 612H80Q109 579 137 546T195 479H254Z" />
<glyph unicode="&#xe9;" horiz-adv-x="450" d="M235 303Q256 303 273 293T305 265Q258 248 212 231T118 196Q119 217 126 235T146 267Q162 284 184 293T235 303ZM362 44L311 104Q296 88 277 80T235 72Q204 72 180 84T140 118Q208 143 275 168T411 218Q402 254
385 284T346 337Q323 359 295 371T235 384Q193 384 157 369T93 327Q66 300 51 264T35 188Q35 147 50 112T93 49Q120 22 156 7T235 -9Q273 -9 305 5T362 44ZM278 479Q307 512 335 545T393 612H309Q286 579 264 546T219 479H278Z" />
<glyph unicode="&#xea;" horiz-adv-x="450" d="M235 303Q256 303 273 293T305 265Q258 248 212 231T118 196Q119 217 126 235T146 267Q162 284 184 293T235 303ZM362 44L311 104Q296 88 277 80T235 72Q204 72 180 84T140 118Q208 143 275 168T411 218Q402 254
385 284T346 337Q323 359 295 371T235 384Q193 384 157 369T93 327Q66 300 51 264T35 188Q35 147 50 112T93 49Q120 22 156 7T235 -9Q273 -9 305 5T362 44ZM425 479Q440 497 455 515T486 551Q501 533 516 515T547 479H606Q576 524 546 569T486 660Q456 615 426
570T366 479H425Z" />
<glyph unicode="&#xeb;" horiz-adv-x="450" d="M235 303Q256 303 273 293T305 265Q258 248 212 231T118 196Q119 217 126 235T146 267Q162 284 184 293T235 303ZM362 44L311 104Q296 88 277 80T235 72Q204 72 180 84T140 118Q208 143 275 168T411 218Q402 254
385 284T346 337Q323 359 295 371T235 384Q193 384 157 369T93 327Q66 300 51 264T35 188Q35 147 50 112T93 49Q120 22 156 7T235 -9Q273 -9 305 5T362 44ZM364 520Q364 543 348 558T313 573Q293 573 277 558T261 520Q261 497 277 483T313 468Q332 468 348 482T364
520ZM198 520Q198 543 182 558T147 573Q127 573 111 558T95 520Q95 497 111 483T147 468Q166 468 182 482T198 520Z" />
<glyph unicode="&#xec;" horiz-adv-x="292" d="M257 0V79H188V375H35V296H105V79H35V0H257ZM174 479Q151 512 129 545T84 612H0Q29 579 57 546T115 479H174Z" />
<glyph unicode="&#xed;" horiz-adv-x="292" d="M257 0V79H188V375H35V296H105V79H35V0H257ZM177 479Q206 512 234 545T292 612H208Q185 579 163 546T118 479H177Z" />
<glyph unicode="&#xee;" horiz-adv-x="292" d="M257 0V79H188V375H35V296H105V79H35V0H257ZM342 479Q357 497 372 515T403 551Q418 533 433 515T464 479H523Q493 524 463 569T403 660Q373 615 343 570T283 479H342Z" />
<glyph unicode="&#xef;" horiz-adv-x="292" d="M257 0V79H188V375H35V296H105V79H35V0H257ZM538 520Q538 543 522 558T487 573Q467 573 451 558T435 520Q435 497 451 483T487 468Q506 468 522 482T538 520ZM372 520Q372 543 356 558T321 573Q301 573 285 558T269
520Q269 497 285 483T321 468Q340 468 356 482T372 520Z" />
<glyph unicode="&#xf0;" horiz-adv-x="471" d="M154 106Q138 121 129 142T119 188Q118 213 125 234T148 271Q163 286 184 295T233 306Q258 307 280 299T318 276Q333 261 342 240T353 194Q353 170 345 149T322 111Q307 95 286 86T239 75Q213 74 191 82T154 106ZM382
56Q408 84 422 120T436 197Q436 246 423 299T388 404Q366 456 338 505T278 595Q292 610 305 624T332 654Q318 667 303 679T274 705Q263 692 252 680T229 655Q206 679 184 699T139 738L78 683Q102 662 125 639T170 591Q156 576 142 561T114 531L172 478L218 528Q229
511 239 494T260 459Q270 440 278 420T294 378Q278 382 262 384T230 386Q188 385 152 369T90 325Q63 298 49 262T35 185Q36 144 53 109T98 48Q126 22 163 8T242 -6Q284 -5 320 12T382 56Z" />
<glyph unicode="&#xf1;" horiz-adv-x="580" d="M257 0V79H194V182Q194 208 205 230T234 268Q252 284 275 293T325 302Q363 300 380 281T400 234V79H323V0H545V79H483V272Q481 322 447 353T354 384Q300 384 256 356T191 279Q189 303 188 322T184 366V375H45V296H111V79H35V0H257ZM413
723Q426 734 435 750T445 787L400 790Q398 776 393 767T379 753Q371 748 363 746T347 744Q333 744 322 749T295 770Q279 786 260 794T218 803Q203 803 188 797T159 779Q146 768 137 752T127 715L172 712Q173 722 176 729T184 741Q193 751 204 754T225 758Q239 758
250 753T277 732Q293 717 312 709T354 700Q369 700 384 706T413 723Z" />
<glyph unicode="&#xf2;" horiz-adv-x="471" d="M378 49Q405 76 420 111T436 188Q436 228 421 264T378 327Q351 353 314 368T235 384Q193 384 157 369T93 327Q66 300 51 264T35 188Q35 147 50 112T93 49Q120 22 156 7T235 -9Q277 -9 314 6T378 49ZM152 106Q136
121 127 142T118 187Q118 211 127 232T152 269Q167 285 188 294T233 303Q257 303 278 294T315 269Q331 253 340 232T349 187Q349 163 340 142T315 106Q299 90 278 81T233 72Q209 72 188 81T152 106ZM252 479Q229 512 207 545T162 612H78Q107 579 135 546T193 479H252Z"
/>
<glyph unicode="&#xf3;" horiz-adv-x="471" d="M378 49Q405 76 420 111T436 188Q436 228 421 264T378 327Q351 353 314 368T235 384Q193 384 157 369T93 327Q66 300 51 264T35 188Q35 147 50 112T93 49Q120 22 156 7T235 -9Q277 -9 314 6T378 49ZM152 106Q136
121 127 142T118 187Q118 211 127 232T152 269Q167 285 188 294T233 303Q257 303 278 294T315 269Q331 253 340 232T349 187Q349 163 340 142T315 106Q299 90 278 81T233 72Q209 72 188 81T152 106ZM290 479Q319 512 347 545T405 612H321Q298 579 276 546T231 479H290Z"
/>
<glyph unicode="&#xf4;" horiz-adv-x="471" d="M378 49Q405 76 420 111T436 188Q436 228 421 264T378 327Q351 353 314 368T235 384Q193 384 157 369T93 327Q66 300 51 264T35 188Q35 147 50 112T93 49Q120 22 156 7T235 -9Q277 -9 314 6T378 49ZM152 106Q136
121 127 142T118 187Q118 211 127 232T152 269Q167 285 188 294T233 303Q257 303 278 294T315 269Q331 253 340 232T349 187Q349 163 340 142T315 106Q299 90 278 81T233 72Q209 72 188 81T152 106ZM174 479Q189 497 204 515T235 551Q250 533 265 515T296 479H355Q325
524 295 569T235 660Q205 615 175 570T115 479H174Z" />
<glyph unicode="&#xf5;" horiz-adv-x="471" d="M378 49Q405 76 420 111T436 188Q436 228 421 264T378 327Q351 353 314 368T235 384Q193 384 157 369T93 327Q66 300 51 264T35 188Q35 147 50 112T93 49Q120 22 156 7T235 -9Q277 -9 314 6T378 49ZM152 106Q136
121 127 142T118 187Q118 211 127 232T152 269Q167 285 188 294T233 303Q257 303 278 294T315 269Q331 253 340 232T349 187Q349 163 340 142T315 106Q299 90 278 81T233 72Q209 72 188 81T152 106ZM624 472Q637 483 646 499T656 536L611 539Q609 525 604 516T590
502Q582 497 574 495T558 493Q544 493 533 498T506 519Q490 535 471 543T429 552Q414 552 399 546T370 528Q357 517 348 501T338 464L383 461Q384 471 387 478T395 490Q404 500 415 503T436 507Q450 507 461 502T488 481Q504 466 523 458T565 449Q580 449 595 455T624
472Z" />
<glyph unicode="&#xf6;" horiz-adv-x="471" d="M378 49Q405 76 420 111T436 188Q436 228 421 264T378 327Q351 353 314 368T235 384Q193 384 157 369T93 327Q66 300 51 264T35 188Q35 147 50 112T93 49Q120 22 156 7T235 -9Q277 -9 314 6T378 49ZM152 106Q136
121 127 142T118 187Q118 211 127 232T152 269Q167 285 188 294T233 303Q257 303 278 294T315 269Q331 253 340 232T349 187Q349 163 340 142T315 106Q299 90 278 81T233 72Q209 72 188 81T152 106ZM370 520Q370 543 354 558T319 573Q299 573 283 558T267 520Q267
497 283 483T319 468Q338 468 354 482T370 520ZM204 520Q204 543 188 558T153 573Q133 573 117 558T101 520Q101 497 117 483T153 468Q172 468 188 482T204 520Z" />
<glyph unicode="&#xf7;" horiz-adv-x="501" d="M428 206V287H68V206H428ZM302 373Q302 396 286 411T251 426Q231 426 215 411T199 373Q199 350 215 336T251 321Q270 321 286 335T302 373ZM302 123Q302 146 286 161T251 176Q231 176 215 161T199 123Q199 100 215
86T251 71Q270 71 286 85T302 123Z" />
<glyph unicode="&#xf8;" horiz-adv-x="471" d="M118 188Q118 213 126 234T150 270Q165 285 187 294T235 303Q247 303 258 301T281 295Q244 252 208 210T135 125Q126 139 122 154T118 188ZM179 85Q229 143 254 172T329 259Q340 245 346 227T352 188Q352 159 341
135T309 96Q294 85 276 79T235 72Q220 72 206 75T179 85ZM126 23Q149 8 176 0T235 -9Q277 -9 314 6T378 49Q405 76 420 111T436 188Q436 226 422 260T383 321Q391 331 400 341T417 361Q406 371 395 381T372 401Q363 390 354 380T335 358Q313 371 288 377T235 384Q193
384 157 369T93 327Q66 300 51 264T35 188Q35 152 47 120T81 62Q70 49 60 37T38 12Q49 2 61 -7T84 -26Q95 -14 105 -2T126 23Z" />
<glyph unicode="&#xf9;" horiz-adv-x="570" d="M393 96L390 51V0H535V70H473V375H324V296H390V193Q390 167 379 145T350 107Q332 91 309 82T259 73Q221 75 204 94T184 141V375H35V296H101V103Q103 53 137 22T230 -9Q284 -9 328 19T393 96ZM300 479Q277 512 255
545T210 612H126Q155 579 183 546T241 479H300Z" />
<glyph unicode="&#xfa;" horiz-adv-x="570" d="M393 96L390 51V0H535V70H473V375H324V296H390V193Q390 167 379 145T350 107Q332 91 309 82T259 73Q221 75 204 94T184 141V375H35V296H101V103Q103 53 137 22T230 -9Q284 -9 328 19T393 96ZM290 479Q319 512 347
545T405 612H321Q298 579 276 546T231 479H290Z" />
<glyph unicode="&#xfb;" horiz-adv-x="570" d="M393 96L390 51V0H535V70H473V375H324V296H390V193Q390 167 379 145T350 107Q332 91 309 82T259 73Q221 75 204 94T184 141V375H35V296H101V103Q103 53 137 22T230 -9Q284 -9 328 19T393 96ZM205 479Q220 497 235
515T266 551Q281 533 296 515T327 479H386Q356 524 326 569T266 660Q236 615 206 570T146 479H205Z" />
<glyph unicode="&#xfc;" horiz-adv-x="570" d="M393 96L390 51V0H535V70H473V375H324V296H390V193Q390 167 379 145T350 107Q332 91 309 82T259 73Q221 75 204 94T184 141V375H35V296H101V103Q103 53 137 22T230 -9Q284 -9 328 19T393 96ZM397 520Q397 543 381
558T346 573Q326 573 310 558T294 520Q294 497 310 483T346 468Q365 468 381 482T397 520ZM231 520Q231 543 215 558T180 573Q160 573 144 558T128 520Q128 497 144 483T180 468Q199 468 215 482T231 520Z" />
<glyph unicode="&#xfd;" horiz-adv-x="617" d="M314 -250V-171H265Q324 -53 382 62T500 296H582V375H353V296H415Q386 241 358 186T310 74Q291 130 262 185T204 296H257V375H35V296H119Q157 221 193 148T268 0Q246 -42 225 -85T182 -171H92V-250H314ZM357 479Q386
512 414 545T472 612H388Q365 579 343 546T298 479H357Z" />
<glyph unicode="&#xfe;" horiz-adv-x="510" d="M258 -250V-171H176V-12Q176 4 175 14T173 32Q176 28 184 22T208 8Q224 0 244 -4T293 -9Q335 -9 372 6T436 49Q463 76 478 111T494 187Q494 226 479 261T436 324Q409 351 372 366T293 382Q248 382 217 368T175 337Q176
343 176 353T176 373V671H238V750H16V671H93V-171H16V-250H258ZM293 303Q315 303 334 297T368 279Q388 263 399 240T410 188Q410 161 400 138T371 99Q356 86 336 79T293 72Q270 72 250 79T215 99Q197 115 187 138T176 188Q176 212 184 232T206 268Q221 284 243
293T293 303Z" />
<glyph unicode="&#xff;" horiz-adv-x="617" d="M314 -250V-171H265Q324 -53 382 62T500 296H582V375H353V296H415Q386 241 358 186T310 74Q291 130 262 185T204 296H257V375H35V296H119Q157 221 193 148T268 0Q246 -42 225 -85T182 -171H92V-250H314ZM446 520Q446
543 430 558T395 573Q375 573 359 558T343 520Q343 497 359 483T395 468Q414 468 430 482T446 520ZM280 520Q280 543 264 558T229 573Q209 573 193 558T177 520Q177 497 193 483T229 468Q248 468 264 482T280 520Z" />
<glyph unicode="&#x2013;" horiz-adv-x="509" d="M401 174V255H100V174H401Z" />
<glyph unicode="&#x2014;" horiz-adv-x="700" d="M601 174V255H99V174H601Z" />
<glyph unicode="&#x2018;" horiz-adv-x="164" d="M116 590Q95 610 86 639T83 704Q70 706 57 707T31 711Q23 669 35 632T75 566L116 590Z" />
<glyph unicode="&#x2019;" horiz-adv-x="164" d="M120 711Q107 709 94 708T68 704Q75 669 66 640T35 590L76 566Q104 594 116 631T120 711Z" />
<glyph unicode="&#x201a;" horiz-adv-x="146" d="M104 92Q91 90 78 89T52 85Q59 50 50 21T19 -29L60 -53Q88 -25 100 12T104 92Z" />
<glyph unicode="&#x201c;" horiz-adv-x="249" d="M220 590Q199 610 190 639T187 704Q174 706 161 707T135 711Q127 669 139 632T179 566L220 590ZM116 590Q95 610 86 639T83 704Q70 706 57 707T31 711Q23 669 35 632T75 566L116 590Z" />
<glyph unicode="&#x201d;" horiz-adv-x="248" d="M96 711Q83 709 70 708T44 704Q51 669 42 640T11 590L52 566Q80 594 92 631T96 711ZM200 711Q187 709 174 708T148 704Q155 669 146 640T115 590L156 566Q184 594 196 631T200 711Z" />
<glyph unicode="&#x201e;" horiz-adv-x="341" d="M104 92Q91 90 78 89T52 85Q59 50 50 21T19 -29L60 -53Q88 -25 100 12T104 92ZM208 92Q195 90 182 89T156 85Q163 50 154 21T123 -29L164 -53Q192 -25 204 12T208 92Z" />
<glyph unicode="&#x2022;" horiz-adv-x="479" d="M239 174Q266 174 289 183T330 210Q347 227 357 250T367 300Q367 327 357 350T330 391Q312 408 289 418T239 428Q213 428 190 418T150 391Q133 373 123 350T113 300Q113 273 123 250T150 210Q167 193 190 184T239 174Z" />
<glyph unicode="&#x2039;" horiz-adv-x="392" d="M117 239L288 77V172Q271 189 256 205T223 239Q240 256 255 272T288 305V400Q245 359 203 320T117 239Z" />
<glyph unicode="&#x203a;" horiz-adv-x="392" d="M288 239L117 77V172Q134 189 149 205T182 239Q165 256 150 272T117 305V400Q160 359 202 320T288 239Z" />
</font>
</defs>
</svg>
