<?xml version="1.0" standalone="no"?>
<!DOCTYPE svg PUBLIC "-//W3C//DTD SVG 1.1//EN" "http://www.w3.org/Graphics/SVG/1.1/DTD/svg11.dtd">
<svg xmlns="http://www.w3.org/2000/svg">
<defs >
<font id="JosefinSlab" horiz-adv-x="508" ><font-face
    font-family="Josefin Slab Thin SemiBold"
    units-per-em="1000"
    panose-1="2 0 0 0 0 0 0 0 0 0"
    ascent="750"
    descent="-250"
    alphabetic="0" />
<glyph unicode=" " horiz-adv-x="300" />
<glyph unicode="!" horiz-adv-x="201" d="M142 54Q142 73 129 85T100 97Q84 97 71 85T58 54Q58 35 71 23T100 10Q116 10 129 22T142 54ZM131 166V750H68V166H131Z" />
<glyph unicode="&quot;" horiz-adv-x="323" d="M256 472Q257 535 258 596T260 720H196V472H256ZM123 472Q124 535 125 596T127 720H63V472H123Z" />
<glyph unicode="#" horiz-adv-x="571" d="M211 381H331L317 260H197L211 381ZM166 0L189 199H309L286 0H350L373 199H485L492 260H381L395 381H508L514 443H402L427 643H363L338 443H218L243 643H179L154 443H55L49 381H147L133 260H34L26 199H125L102 0H166Z" />
<glyph unicode="$" horiz-adv-x="567" d="M271 -68V-7Q309 -3 343 12T402 52Q428 77 442 111T456 187Q456 240 440 275T396 333Q370 355 337 368T271 393V642Q297 640 317 634T353 619V546H413V649Q377 678 340 689T271 703V764H207V701Q165 695 136 677T87 633Q69
607 61 577T54 517Q55 475 68 447T103 401Q124 382 151 371T207 350V55Q169 60 140 74T88 107V196H28V85Q39 69 57 55T100 27Q122 15 149 7T207 -4V-68H271ZM271 330Q295 321 317 311T356 284Q373 267 383 244T393 186Q393 152 380 127T344 85Q329 73 310 65T271
55V330ZM117 519Q117 542 124 564T146 603Q157 616 172 625T207 637V414Q191 420 177 427T151 443Q136 457 127 475T117 519Z" />
<glyph unicode="%" horiz-adv-x="726" d="M471 92Q467 103 467 113T471 134Q475 144 483 151T502 163Q512 166 522 166T543 163Q554 159 561 151T573 131Q577 119 576 108T570 86Q567 76 560 70T542 59Q533 56 524 55T505 56Q492 60 484 69T471 92ZM608 25Q625
41 635 63T645 112Q645 136 635 158T608 197Q591 213 569 222T522 232Q497 232 475 223T435 197Q418 181 409 159T399 112Q399 86 408 64T435 25Q452 9 474 0T522 -10Q547 -10 569 -1T608 25ZM167 370Q163 381 164 392T170 414Q173 423 180 429T198 440Q209 444
220 444T241 439Q251 435 258 427T269 408Q273 396 272 384T264 362Q261 353 254 347T238 337Q228 333 218 333T197 337Q186 341 179 349T167 370ZM304 303Q321 319 331 341T341 389Q341 414 331 436T304 475Q287 491 265 500T218 510Q193 510 171 501T131 475Q114
458 105 436T95 389Q95 363 104 341T131 303Q148 286 170 277T218 267Q243 267 265 276T304 303ZM253 0Q328 126 402 250T551 500H482Q407 374 333 250T184 0H253Z" />
<glyph unicode="&amp;" horiz-adv-x="700" d="M304 -8Q352 -8 392 12T460 66L512 -19L561 14L491 127Q496 142 499 157T503 187Q503 199 503 210T503 231V313H601V375H439V275Q439 262 437 249T432 222L254 512Q242 531 236 551T232 592Q233 608 241 626T266 660Q280
674 298 681T339 688Q363 686 387 676T429 655L454 705Q431 720 400 733T333 747Q298 749 269 738T217 705Q194 683 181 657T167 603Q165 577 173 550T196 496L267 380Q232 374 203 357T152 314Q130 288 118 256T105 188Q105 147 120 112T163 49Q190 22 226 7T304
-8ZM304 53Q275 53 250 63T208 91Q189 110 179 134T168 188Q168 216 177 239T203 281Q222 299 247 309T303 321L423 125Q407 93 376 73T304 53Z" />
<glyph unicode="&apos;" horiz-adv-x="158" d="M110 472Q111 535 112 596T114 720H49V472H110Z" />
<glyph unicode="(" horiz-adv-x="415" d="M342 -141Q313 -108 286 -63T236 37Q214 92 201 156T188 291Q188 362 201 426T236 545Q258 600 285 645T342 723Q329 729 316 734T289 746Q257 713 228 666T175 560Q152 502 138 434T124 291Q124 216 138 148T175 22Q198
-36 227 -83T289 -164Q302 -158 315 -153T342 -141Z" />
<glyph unicode=")" horiz-adv-x="400" d="M251 20Q274 78 288 146T302 289Q302 364 288 432T251 558Q228 616 198 663T137 744Q124 738 111 732T85 720Q114 687 141 642T191 542Q213 487 226 423T239 288Q239 217 226 153T191 34Q169 -21 142 -66T85 -144Q98 -150
111 -155T137 -166Q168 -133 198 -86T251 20Z" />
<glyph unicode="*" horiz-adv-x="335" d="M198 434Q198 455 198 477T199 520Q221 507 237 497T275 475L307 531L230 575Q251 586 270 597T309 620L279 673Q259 662 240 651T200 629Q201 652 201 674T202 720H137V629Q117 640 98 651T59 674L30 621Q51 609 67 599T105
576Q83 564 67 555T29 534L61 477Q80 488 99 498T137 521V434H198Z" />
<glyph unicode="+" horiz-adv-x="543" d="M298 51V200H446V262H298V411H234V262H86V200H234V51H298Z" />
<glyph unicode="," horiz-adv-x="200" d="M67 -120Q89 -68 110 -17T153 86H86Q66 34 48 -17T9 -120H67Z" />
<glyph unicode="-" horiz-adv-x="300" d="M237 158V219H53V158H237Z" />
<glyph unicode="." horiz-adv-x="163" d="M127 43Q127 61 114 73T85 86Q69 86 56 74T43 43Q43 24 56 12T85 0Q101 0 114 12T127 43Z" />
<glyph unicode="/" horiz-adv-x="363" d="M81 -19Q151 171 220 358T359 736H295Q225 546 156 359T17 -19H81Z" />
<glyph unicode="0" horiz-adv-x="616" d="M489 84Q527 128 550 188T573 323Q573 391 555 452T502 559Q468 604 419 631T307 658Q246 658 196 632T111 561Q76 516 57 456T37 327Q37 253 58 192T117 86Q154 42 202 17T302 -8Q355 -8 403 16T489 84ZM161 132Q133
168 117 218T101 327Q101 373 114 421T152 509Q178 548 216 572T307 596Q359 596 397 571T461 507Q485 467 497 419T509 324Q509 265 492 216T447 130Q418 94 381 74T303 54Q262 54 226 75T161 132Z" />
<glyph unicode="1" horiz-adv-x="278" d="M258 0V60H179V650H34V588H115V60H36V0H258Z" />
<glyph unicode="2" horiz-adv-x="512" d="M482 0V160H422V62H205Q249 109 291 157T368 253Q401 302 422 352T443 454Q443 496 429 533T388 598Q362 625 326 641T246 658Q197 658 160 642T97 599Q72 572 59 536T46 459Q46 412 63 374T111 314L149 352Q129 373 119
399T109 459Q109 478 115 501T137 547Q152 568 178 582T246 596Q266 596 289 588T333 561Q353 543 366 514T379 442Q379 395 352 343T279 236Q233 180 175 121T53 0H482Z" />
<glyph unicode="3" horiz-adv-x="515" d="M377 55Q406 83 423 122T440 205Q440 244 427 277T392 338Q368 364 337 382T270 408L429 650H103V535H163V588H321L161 336Q176 346 191 350T225 355Q256 355 283 343T332 311Q353 291 365 264T377 205Q377 174 365 147T332
99Q311 78 284 66T225 54Q191 54 163 68T115 106L69 62Q98 30 138 11T226 -8Q270 -8 308 9T377 55Z" />
<glyph unicode="4" horiz-adv-x="522" d="M486 0V60H403V183H500V245H403V658L37 183H339V60H264V0H486ZM339 472V245H165L339 472Z" />
<glyph unicode="5" horiz-adv-x="543" d="M405 55Q434 83 451 122T469 205Q469 249 452 287T405 355Q376 383 337 399T254 416Q241 416 230 414T207 408V588H370V535H430V650H143V306Q160 331 189 342T253 354Q284 354 312 343T361 311Q381 290 393 263T406 205Q406
174 394 147T361 99Q340 78 313 66T253 54Q224 54 198 64T153 94L106 52Q135 23 172 8T253 -8Q298 -8 337 9T405 55Z" />
<glyph unicode="6" horiz-adv-x="520" d="M157 99Q136 119 125 146T113 204Q113 236 124 263T157 311Q177 330 204 342T262 354Q293 354 320 342T369 311Q389 290 401 263T413 204Q413 173 401 146T369 98Q348 78 321 66T262 54Q231 54 204 66T157 99ZM413 55Q442
83 459 121T476 204Q476 248 459 286T413 354Q384 383 345 399T262 416Q243 416 227 409T200 391Q215 412 236 434T284 482Q311 506 344 532T420 587Q410 599 400 611T380 636Q324 595 265 548T158 447Q110 393 80 331T49 196Q50 153 67 116T114 52Q143 24 181
8T262 -8Q306 -8 345 8T413 55Z" />
<glyph unicode="7" horiz-adv-x="469" d="M132 0L424 650H14V535H74V588H325L59 0H132Z" />
<glyph unicode="8" horiz-adv-x="510" d="M174 478Q169 494 170 510T179 542Q186 556 199 568T228 585Q244 590 260 589T292 581Q307 573 318 559T335 528Q340 511 338 494T327 462Q321 448 309 439T281 425Q266 421 251 421T221 427Q204 434 192 447T174 478ZM149
99Q129 119 118 146T106 205Q106 236 117 263T149 311Q169 331 197 342T257 354Q287 353 314 341T362 309Q382 289 394 263T406 205Q406 174 394 147T361 99Q340 78 313 66T253 53Q223 53 196 65T149 99ZM405 55Q434 83 451 122T469 205Q469 242 457 274T424 333Q410
351 391 365T350 390Q376 409 392 438T408 503Q408 535 396 563T363 612Q341 634 313 646T253 658Q221 658 193 646T145 613Q123 592 111 564T99 504Q99 468 115 439T157 390Q135 380 116 365T82 330Q63 304 52 272T41 205Q41 161 58 122T104 55Q132 26 170 9T254
-8Q298 -8 337 9T405 55Z" />
<glyph unicode="9" horiz-adv-x="525" d="M143 317Q122 337 110 364T97 423Q97 454 109 481T143 529Q163 550 190 562T249 574Q280 574 307 562T355 529Q375 508 386 481T397 423Q397 392 386 365T355 317Q334 296 307 285T249 273Q218 273 191 284T143 317ZM351
177Q400 230 431 291T462 423Q462 466 446 505T401 572Q371 601 332 618T249 635Q205 635 166 619T98 573Q69 544 52 506T34 423Q34 379 51 341T98 274Q127 244 166 228T249 212Q267 212 283 218T313 237Q303 222 289 205T255 169Q225 140 185 108T91 41Q101 28
111 16T131 -9Q186 31 244 77T351 177Z" />
<glyph unicode=":" horiz-adv-x="175" d="M127 293Q127 311 114 323T85 336Q68 336 55 324T42 293Q42 274 55 262T85 250Q101 250 114 262T127 293ZM127 43Q127 61 114 73T85 86Q68 86 55 74T42 43Q42 24 55 12T85 0Q101 0 114 12T127 43Z" />
<glyph unicode=";" horiz-adv-x="201" d="M156 293Q156 311 143 323T114 336Q97 336 84 324T71 293Q71 274 84 262T114 250Q129 250 142 262T156 293ZM52 -120Q74 -68 95 -17T138 86H72Q52 34 34 -17T-5 -120H52Z" />
<glyph unicode="&lt;" horiz-adv-x="680" d="M553 71Q480 113 408 154T262 238Q335 280 407 321T553 405V490Q443 427 335 364T116 238Q226 175 334 112T553 -14V71Z" />
<glyph unicode="=" horiz-adv-x="708" d="M606 123V185H100V123H606ZM606 317V379H100V317H606Z" />
<glyph unicode="&gt;" horiz-adv-x="650" d="M553 238Q443 301 334 364T116 490V405Q188 363 261 322T406 238Q334 196 261 155T116 71V-14Q225 49 334 112T553 238Z" />
<glyph unicode="?" horiz-adv-x="452" d="M240 164V242Q240 271 248 289T270 321Q284 334 300 344T332 366Q377 399 403 440T430 537Q430 577 415 612T373 674Q347 701 311 716T234 732Q188 732 155 718T98 682Q75 661 61 635T38 585Q52 580 66 575T94 565Q101
587 111 604T135 635Q153 652 177 661T234 670Q262 670 286 661T327 634Q345 616 355 591T365 537Q365 500 349 468T299 409Q275 390 254 376T214 347Q197 332 187 313T176 261V164H240ZM249 50Q249 69 236 81T207 93Q191 93 178 81T165 50Q165 31 178 19T207 7Q223
7 236 19T249 50Z" />
<glyph unicode="@" horiz-adv-x="990" d="M367 151Q359 177 361 202T376 248Q387 269 406 284T450 307Q472 314 495 314T540 305Q565 294 582 273T607 225Q614 198 610 172T591 123Q581 104 564 90T524 69Q501 62 478 62T435 70Q409 81 392 102T367 151ZM739 -141Q729
-130 720 -119T701 -96Q655 -127 602 -145T489 -163Q416 -163 352 -136T241 -61Q192 -13 165 51T137 188Q137 261 164 325T241 438Q288 486 352 513T489 541Q562 541 625 514T736 438Q784 390 811 326T839 188Q837 152 828 128T803 88Q789 74 770 68T729 61H685V375H633Q633
358 631 342T629 308Q625 316 615 327T588 350Q568 364 543 373T486 382Q445 382 409 367T345 325Q318 298 303 263T287 187Q287 147 302 112T345 49Q372 23 408 8T486 -8Q516 -8 540 -1T584 17Q602 28 613 40T629 62V30V0H727Q753 0 782 9T838 40Q863 61 881 97T903
188Q903 274 871 350T782 482Q726 538 651 570T489 603Q403 603 328 571T196 482Q139 426 106 351T73 189Q73 103 106 28T196 -104Q252 -160 327 -192T489 -225Q567 -225 627 -204T739 -141Z" />
<glyph unicode="A" horiz-adv-x="800" d="M243 0V60H178Q207 129 226 174T275 288H525Q549 231 572 174T621 60H557V0H765V60H685Q614 230 543 396T400 732Q329 562 258 396T115 60H35V0H243ZM389 561Q391 566 393 573T399 592L409 561L499 348H301Q322 399 344
453T389 561Z" />
<glyph unicode="B" horiz-adv-x="534" d="M277 0Q320 0 360 11T432 46Q462 68 480 101T499 180Q499 216 487 245T456 296Q435 318 408 332T353 352Q414 369 444 416T474 525Q474 571 459 604T415 659Q387 680 347 690T260 700H35V640H88V60H35V0H277ZM151 322H257Q291
322 323 314T382 290Q406 274 421 249T436 188Q436 156 423 132T388 93Q365 76 336 68T272 60H151V322ZM151 640H267Q298 640 323 634T368 613Q388 599 399 575T411 517Q411 457 373 420T270 382H151V640Z" />
<glyph unicode="C" horiz-adv-x="610" d="M574 42L539 92Q506 73 469 63T391 52Q330 52 277 75T185 140Q144 179 121 233T98 349Q98 410 121 464T185 560Q224 601 277 624T392 648Q424 648 455 641T515 619V546H575V658Q534 682 489 695T392 708Q318 708 253 680T140
603Q91 554 63 489T35 349Q35 275 63 210T140 97Q188 48 253 20T392 -8Q443 -8 488 5T574 42Z" />
<glyph unicode="D" horiz-adv-x="632" d="M211 0Q317 0 390 32T510 116Q556 166 576 228T597 349Q597 430 569 494T493 605Q445 651 381 675T245 700H35V640H90V61H35V0H211ZM153 640H240Q301 640 354 620T449 562Q488 524 511 470T534 350Q534 289 513 237T454
146Q414 106 358 84T231 61H153V640Z" />
<glyph unicode="E" horiz-adv-x="571" d="M536 0V154H476V60H162V323H483V383H162V640H462V546H522V700H35V640H99V60H35V0H536Z" />
<glyph unicode="F" horiz-adv-x="557" d="M257 0V60H162V323H483V383H162V640H462V546H522V700H35V640H99V60H35V0H257Z" />
<glyph unicode="G" horiz-adv-x="609" d="M574 40V298H388V238H511V76Q484 63 454 57T391 50Q330 50 277 73T185 138Q144 177 121 231T98 347Q98 408 121 462T185 558Q224 599 277 622T392 646Q433 646 470 635T540 605L575 656Q534 680 489 693T392 706Q318 706
253 678T140 601Q91 552 63 487T35 347Q35 273 63 208T140 95Q188 46 253 18T392 -10Q443 -10 488 3T574 40Z" />
<glyph unicode="H" horiz-adv-x="756" d="M257 0V60H176V323H579V60H498V0H721V60H642V640H721V700H498V640H579V383H176V640H257V700H35V640H113V60H35V0H257Z" />
<glyph unicode="I" horiz-adv-x="292" d="M257 0V60H176V640H257V700H35V640H113V60H35V0H257Z" />
<glyph unicode="J" horiz-adv-x="295" d="M195 -81Q225 -52 242 -9T260 90V700H35V640H197V93Q197 52 185 20T151 -34Q130 -57 100 -69T35 -83V-143Q82 -142 123 -126T195 -81Z" />
<glyph unicode="K" horiz-adv-x="686" d="M257 0V60H175V307L249 378Q312 298 374 219T499 60H443V0H651V60H574Q503 150 433 239T291 418L524 640H608V700H400V640H445L191 398L173 376Q173 384 174 391T175 407V640H243V700H35V640H112V60H35V0H257Z" />
<glyph unicode="L" horiz-adv-x="570" d="M535 0V154H474V60H160V640H243V700H35V640H97V60H35V0H535Z" />
<glyph unicode="M" horiz-adv-x="972" d="M257 0V60H182V521Q182 530 181 539T180 556Q185 547 189 542T200 528L485 155L761 514Q769 525 776 535T791 556Q790 546 790 539T788 521V60H714V0H937V60H851V640H935V700H827Q741 589 656 478T485 256Q405 359 318
473T144 700H35V640H119V60H35V0H257Z" />
<glyph unicode="N" horiz-adv-x="851" d="M730 640H816V700H593V640H667V140L670 108L651 134L147 700H35V640H119V60H35V0H257V60H182V552L179 582L198 558L730 -32V640Z" />
<glyph unicode="O" horiz-adv-x="786" d="M645 97Q694 145 722 210T751 349Q751 423 723 488T645 602Q596 651 531 679T392 708Q318 708 253 680T140 602Q91 553 63 488T35 349Q35 275 63 210T140 97Q188 48 253 20T392 -8Q466 -8 531 20T645 97ZM185 140Q144
179 121 233T98 349Q98 410 121 464T185 559Q224 600 278 623T393 647Q454 647 507 624T602 559Q641 519 664 465T688 349Q688 288 665 234T601 140Q561 99 507 76T392 52Q331 52 278 75T185 140Z" />
<glyph unicode="P" horiz-adv-x="507" d="M257 0V60H151V320H260Q363 320 417 372T472 513Q472 564 449 599T391 657Q357 679 318 689T245 700H35V640H88V60H35V0H257ZM151 640H247Q281 640 310 630T362 602Q384 584 396 562T409 513Q409 492 401 469T375 426Q356
407 325 394T246 381H151V640Z" />
<glyph unicode="Q" horiz-adv-x="808" d="M185 140Q144 179 121 233T98 349Q98 410 121 464T185 560Q224 601 277 624T392 648Q453 648 506 625T601 560Q641 519 664 465T688 349Q688 288 665 234T601 140Q560 99 506 76T391 52Q330 52 277 75T185 140ZM466 0H773V60H594Q625
80 652 106T698 164Q723 204 737 251T751 349Q751 423 723 488T646 602Q597 651 532 679T392 708Q318 708 253 680T140 602Q91 554 63 489T35 349Q35 275 63 210T140 96Q188 48 253 20T392 -8Q410 -8 428 -6T466 0Z" />
<glyph unicode="R" horiz-adv-x="574" d="M257 0V60H151V320H213Q226 320 235 321T257 322L409 0H539V60H448L323 327Q396 342 434 391T472 513Q472 564 449 599T391 657Q357 679 318 689T245 700H35V640H88V60H35V0H257ZM151 640H247Q281 640 310 630T362 602Q384
584 396 562T409 513Q409 492 401 469T375 426Q356 407 325 394T246 381H151V640Z" />
<glyph unicode="S" horiz-adv-x="478" d="M395 44Q424 70 440 106T456 187Q456 257 430 297T361 358Q316 380 267 393T181 425Q152 439 135 460T117 519Q117 543 124 565T147 605Q162 623 186 633T243 644Q278 644 306 637T353 619V546H413V649Q391 667 368 678T324
695Q302 700 281 702T243 704Q190 704 154 687T95 643Q72 616 63 583T54 517Q55 461 77 430T134 380Q167 361 206 350T282 326Q308 315 329 303T368 271Q381 256 387 234T393 186Q393 154 381 129T347 87Q326 70 299 61T241 52Q191 52 153 68T88 107V196H28V85Q40
68 61 52T111 22Q139 9 174 1T247 -8Q290 -8 328 5T395 44Z" />
<glyph unicode="T" horiz-adv-x="623" d="M419 0V60H344V640H528V546H588V700H35V546H95V640H281V60H197V0H419Z" />
<glyph unicode="U" horiz-adv-x="713" d="M530 52Q563 81 582 125T601 226V640H678V700H456V640H538V229Q538 186 525 153T487 98Q462 75 429 64T356 52Q317 52 284 63T226 98Q202 120 189 153T175 229V640H257V700H35V640H112V226Q112 169 130 125T182 52Q214
22 259 7T356 -8Q408 -8 453 7T530 52Z" />
<glyph unicode="V" horiz-adv-x="820" d="M690 640H785V700H563V640H626Q574 513 521 389T415 139L406 108L397 139Q343 264 291 389T184 640H257V700H35V640H121Q192 470 263 304T406 -32Q477 137 548 303T690 640Z" />
<glyph unicode="W" horiz-adv-x="1190" d="M495 175Q521 235 547 299T592 416L601 385L778 -32Q849 137 920 303T1063 640H1155V700H933V640H999Q946 513 894 389T787 139L778 108L769 139Q715 264 663 389T557 640H628V700H405V640H494Q510 600 527 561T560 483Q539
431 517 380T473 276Q455 234 437 189T406 108L397 139Q342 264 290 389T184 640H257V700H35V640H121Q192 470 263 304T406 -32Q427 18 449 70T495 175Z" />
<glyph unicode="X" horiz-adv-x="699" d="M257 0V60H192Q227 116 262 170T334 280L345 304Q352 294 357 284T368 264L501 60H441V0H664V60H579Q531 134 484 206T388 352Q436 424 481 495T574 640H664V700H441V640H498L361 429L350 406L338 429Q304 482 270 534T201
640H257V700H35V640H124L307 358L114 60H35V0H257Z" />
<glyph unicode="Y" horiz-adv-x="768" d="M498 0V60H423V267Q478 360 533 453T643 640H733V700H511V640H566L397 354L385 325H384L373 354Q330 426 288 497T201 640H257V700H35V640H125Q180 547 235 454T346 268V60H276V0H498Z" />
<glyph unicode="Z" horiz-adv-x="629" d="M594 0V222H534V61H113L565 640V700H115V735H51V640H487L35 61V0H594Z" />
<glyph unicode="[" horiz-adv-x="338" d="M267 -149V-87H147V684H267V746H83V-149H267Z" />
<glyph unicode="\" horiz-adv-x="366" d="M354 -19Q284 171 215 358T76 736H5Q75 546 144 359T283 -19H354Z" />
<glyph unicode="]" horiz-adv-x="342" d="M251 -149V746H67V684H187V-87H67V-149H251Z" />
<glyph unicode="^" horiz-adv-x="470" d="M159 479Q177 503 195 527T232 575Q250 551 268 527T305 479H352Q322 524 292 569T232 660Q202 615 172 570T112 479H159Z" />
<glyph unicode="_" horiz-adv-x="600" d="M500 0V62H100V0H500Z" />
<glyph unicode="`" horiz-adv-x="200" d="M114 479Q91 512 69 545T24 612H-40Q-13 579 13 546T67 479H114Z" />
<glyph unicode="a" horiz-adv-x="543" d="M508 0V60H433V375H381Q380 358 379 341T377 308Q365 336 328 360T234 384Q192 384 156 368T93 325Q66 299 51 263T35 187Q35 147 50 112T93 50Q119 23 155 8T234 -8Q264 -8 288 -1T332 18Q350 28 361 40T377 62Q377 53
377 46T377 30V0H508ZM234 322Q262 322 286 313T329 285Q348 268 359 243T370 188Q370 159 359 134T329 90Q311 73 287 63T234 53Q207 53 185 62T145 86Q123 104 111 130T99 188Q99 216 108 239T135 281Q152 301 178 311T234 322Z" />
<glyph unicode="b" horiz-adv-x="543" d="M35 0H166V30Q166 39 166 46T166 62Q169 52 181 40T212 18Q230 6 254 -1T309 -8Q350 -8 386 7T450 50Q477 76 492 112T508 188Q508 228 493 263T450 326Q423 353 387 368T309 384Q281 384 257 377T214 358Q195 346 185
335T171 314Q172 325 172 332T173 350V750H42V690H110V60H35V0ZM309 322Q336 322 360 313T403 287Q422 269 433 244T444 188Q444 159 434 135T405 92Q387 74 363 64T309 53Q281 53 257 63T214 89Q195 108 184 133T173 188Q173 215 182 239T209 281Q227 301 252
311T309 322Z" />
<glyph unicode="c" horiz-adv-x="394" d="M358 35L319 83Q301 68 280 61T233 53Q205 53 181 63T138 91Q119 109 109 134T98 188Q98 218 109 243T140 287Q157 304 181 313T233 322Q252 322 269 318T302 304V233H359V341Q334 361 302 372T233 384Q191 384 155 369T93
326Q65 300 50 264T35 188Q35 147 50 112T93 50Q119 23 155 8T233 -8Q269 -8 300 3T358 35Z" />
<glyph unicode="d" horiz-adv-x="543" d="M508 0V60H433V750H301V690H370V378Q370 362 370 348T372 315Q367 325 357 335T328 358Q309 369 285 376T234 384Q192 384 156 369T93 326Q66 299 51 264T35 188Q35 148 50 112T93 50Q119 23 155 8T234 -8Q264 -8 288
-1T332 18Q350 28 361 40T377 62Q377 53 377 46T377 30V0H508ZM234 322Q261 322 285 313T326 288Q346 270 358 245T370 188Q370 159 359 133T328 89Q309 72 286 63T234 53Q206 53 182 62T140 89Q121 107 110 133T99 188Q99 216 109 240T136 283Q154 301 179 311T234
322Z" />
<glyph unicode="e" horiz-adv-x="446" d="M233 322Q263 322 287 307T327 265Q270 244 214 222T100 178Q97 206 105 231T128 275Q147 297 173 309T233 322ZM362 45L323 90Q306 72 283 63T233 53Q194 53 164 71T117 119Q190 147 262 174T407 230Q398 263 382 291T343
340Q320 360 292 372T233 384Q192 384 156 369T93 327Q66 300 51 264T35 188Q35 147 50 112T93 49Q119 23 155 8T233 -8Q272 -8 304 6T362 45Z" />
<glyph unicode="f" horiz-adv-x="320" d="M243 0V60H158V313H280V375H158V516Q158 558 170 590T206 644Q228 666 257 677T320 691V751Q273 749 232 734T160 688Q130 659 113 616T95 517V375H35V313H96V60H35V0H243Z" />
<glyph unicode="g" horiz-adv-x="543" d="M81 -191Q110 -215 150 -232T238 -250Q278 -250 313 -235T376 -192Q402 -166 417 -129T433 -48V315H508V375H381Q379 357 378 341T377 308Q362 337 324 360T234 384Q192 384 156 368T93 325Q66 299 51 263T35 187Q35 147
50 112T93 50Q119 23 155 8T234 -7Q262 -7 286 -1T328 16Q343 24 355 35T372 58Q371 49 371 40T370 24V-40Q370 -72 360 -98T331 -144Q313 -163 289 -174T236 -185Q204 -185 175 -172T124 -140L81 -191ZM234 322Q261 322 285 313T326 288Q346 270 358 245T370 188Q370
160 360 136T332 94Q314 75 289 64T234 53Q205 53 181 63T139 90Q120 108 110 133T99 188Q99 215 108 239T134 280Q152 300 177 311T234 322Z" />
<glyph unicode="h" horiz-adv-x="563" d="M243 0V60H175V193Q175 221 186 244T218 285Q237 302 262 311T317 321Q357 319 376 298T398 246V60H320V0H528V60H461V271Q459 321 426 352T335 383Q278 381 236 354T172 278L175 323V750H37V690H112V60H35V0H243Z" />
<glyph unicode="i" horiz-adv-x="278" d="M243 0V60H171V375H35V315H108V60H35V0H243ZM183 514Q183 533 170 545T141 558Q125 558 112 546T98 514Q98 496 111 484T141 471Q157 471 170 483T183 514Z" />
<glyph unicode="j" horiz-adv-x="199" d="M164 -2V375H35V315H101V-1Q101 -46 87 -79T46 -134L90 -181Q125 -152 144 -107T164 -2ZM177 514Q177 533 164 545T135 558Q118 558 105 546T92 514Q92 496 105 484T135 471Q150 471 163 483T177 514Z" />
<glyph unicode="k" horiz-adv-x="515" d="M35 0H243V60H173V126L229 179Q250 149 272 120T316 60H287V0H480V60H390Q361 100 332 140T274 220Q300 245 323 267T373 315H440V375H247V315H295L173 201V750H42V690H110V60H35V0Z" />
<glyph unicode="l" horiz-adv-x="278" d="M243 0V60H173V750H42V690H110V60H35V0H243Z" />
<glyph unicode="m" horiz-adv-x="850" d="M243 0V60H175V193Q175 221 186 244T218 285Q237 302 262 311T317 321Q357 319 376 298T398 246V60H321V0H529V60H461V195Q461 222 473 245T505 285Q524 302 549 311T603 321Q642 319 661 298T683 246V60H607V0H815V60H746V271Q744
321 711 352T621 383Q566 382 524 356T460 283Q454 328 421 355T335 383Q278 382 236 354T172 278Q170 299 169 315T167 353L166 375H43V315H112V60H35V0H243Z" />
<glyph unicode="n" horiz-adv-x="563" d="M243 0V60H175V193Q175 221 186 244T218 285Q237 302 262 311T317 321Q357 319 376 298T398 246V60H320V0H528V60H461V271Q459 321 426 352T335 383Q281 383 237 355T172 278Q170 299 169 315T167 353L166 375H43V315H112V60H35V0H243Z"
/>
<glyph unicode="o" horiz-adv-x="468" d="M375 50Q402 76 417 111T433 188Q433 228 418 264T376 327Q348 353 312 368T234 384Q192 384 156 369T93 327Q66 300 51 264T35 188Q35 147 50 112T93 50Q120 23 156 8T234 -8Q275 -8 311 7T375 50ZM138 93Q119 111 109
135T98 188Q98 215 108 239T138 283Q156 301 180 311T232 322Q260 322 284 312T328 283Q346 264 356 240T367 187Q367 159 357 135T328 93Q309 74 285 64T232 53Q204 53 180 63T138 93Z" />
<glyph unicode="p" horiz-adv-x="543" d="M44 -250H252V-190H174V31Q174 37 174 43T172 56Q177 45 186 36T215 16Q233 5 257 -2T309 -9Q351 -9 387 6T451 49Q478 76 493 111T508 188Q508 228 493 263T451 326Q424 352 388 367T309 383Q253 383 217 358T166 307Q166
324 165 340T163 375H35V315H111V-190H44V-250ZM309 322Q336 322 360 313T402 288Q422 269 433 244T445 188Q445 158 434 132T403 88Q385 72 361 63T309 53Q281 53 257 62T215 89Q195 107 185 132T174 188Q174 215 183 239T211 282Q229 301 254 311T309 322Z" />
<glyph unicode="q" horiz-adv-x="545" d="M498 -250V-190H433V315H510V375H381Q380 357 379 340T377 307Q361 337 326 360T234 383Q192 383 156 368T93 326Q66 299 51 264T35 188Q35 147 50 112T93 49Q119 22 155 7T234 -9Q262 -9 286 -3T328 15Q346 25 356 35T372
57Q370 48 370 41T369 26V-190H290V-250H498ZM234 322Q262 322 286 312T329 285Q348 267 359 242T370 188Q370 159 360 135T331 92Q313 74 288 64T234 53Q207 53 184 62T142 87Q122 105 111 131T99 188Q99 216 109 241T138 284Q155 301 179 311T234 322Z" />
<glyph unicode="r" horiz-adv-x="357" d="M243 0V60H175V193Q175 224 188 249T225 292Q243 306 267 313T318 321L322 383Q303 383 283 376T241 355Q220 342 202 323T172 278Q170 299 170 300T169 323L166 375H43V315H112V60H35V0H243Z" />
<glyph unicode="s" horiz-adv-x="327" d="M270 34Q284 52 290 72T296 107Q296 139 284 159T253 192Q235 204 213 212T172 229Q153 236 140 246T125 273Q124 285 128 294T139 310Q147 315 157 318T179 321Q192 321 203 319T224 311V263H281V344Q271 355 258 362T230
374Q215 379 202 381T177 383Q159 383 138 377T100 357Q83 344 72 324T61 274Q61 240 74 221T106 190Q126 179 148 173T190 158Q209 151 220 140T232 106Q232 92 227 83T215 67Q205 60 194 57T172 54Q152 54 137 56T106 67V112H49V31Q71 9 103 1T170 -8Q207 -8
231 4T270 34Z" />
<glyph unicode="t" horiz-adv-x="325" d="M262 0V60H183V313H290V375H183V619H120V375H35V313H120V0H262Z" />
<glyph unicode="u" horiz-adv-x="555" d="M394 97L392 52L393 0H520V54H454V375H321V315H391V182Q391 154 379 131T347 90Q328 73 303 64T249 54Q209 56 190 77T168 129V375H35V315H105V104Q107 54 140 23T230 -8Q285 -8 329 20T394 97Z" />
<glyph unicode="v" horiz-adv-x="586" d="M473 315H551V375H348V315H407Q376 257 346 200T294 88Q271 144 242 201T181 315H239V375H35V315H116Q161 230 205 146T294 -23Q339 62 383 145T473 315Z" />
<glyph unicode="w" horiz-adv-x="839" d="M428 243L561 -23Q604 62 646 145T731 315H804V375H611V315H669Q639 258 612 202T561 88Q538 145 511 201T454 315H516V375H311V315H380L396 284Q371 237 348 192T293 88Q273 134 242 196T182 315H229V375H35V315H119Q162
230 204 146T289 -23L428 243Z" />
<glyph unicode="x" horiz-adv-x="515" d="M227 0V60H188Q204 82 219 102T250 145Q265 124 280 103T313 60H272V0H480V60H392Q370 89 349 118T306 177L405 315H480V375H288V315H330L266 226L201 315H243V375H35V315H125Q146 285 168 256T211 198Q186 163 161 129T111
60H35V0H227Z" />
<glyph unicode="y" horiz-adv-x="609" d="M300 -250V-190H244Q307 -63 370 62T497 315H574V375H371V315H431Q398 250 365 185T307 57Q280 122 247 186T181 315H239V375H35V315H116Q156 235 195 157T274 -1Q250 -48 227 -95T179 -190H92V-250H300Z" />
<glyph unicode="z" horiz-adv-x="433" d="M398 0V117H342V62H123Q191 128 248 186T377 313V375H104V410H47V315H289Q218 246 161 188T35 62V0H398Z" />
<glyph unicode="{" horiz-adv-x="306" d="M273 -149V-87H225Q211 -87 202 -83T186 -69Q179 -57 176 -36T173 18V154Q173 188 167 212T151 254Q142 271 131 281T108 298Q119 305 130 315T151 342Q161 359 167 383T173 444V579Q173 613 176 634T186 667Q192 677
202 680T225 684H273V746H218Q196 746 177 745T142 733Q127 723 118 699T109 628V464Q109 444 106 421T94 377Q85 357 70 344T30 329V265Q54 264 69 251T94 217Q103 197 106 174T109 130V-20Q109 -71 117 -97T140 -134Q155 -146 175 -147T218 -149H273Z" />
<glyph unicode="|" horiz-adv-x="256" d="M157 -232V700H93V-232H157Z" />
<glyph unicode="}" horiz-adv-x="320" d="M102 -149Q124 -149 143 -148T178 -136Q193 -126 202 -102T211 -31V120Q211 139 213 163T225 210Q232 233 248 248T290 265V329Q267 330 252 342T228 374Q217 397 214 425T211 475V628Q211 675 202 699T178 733Q163 744
143 745T102 746H47V684H95Q109 684 119 680T135 665Q141 653 144 632T147 579V444Q147 408 153 384T169 342Q178 325 189 315T212 298Q203 293 192 283T170 256Q160 241 154 218T147 164V18Q147 -14 144 -35T135 -68Q129 -79 119 -83T95 -87H47V-149H102Z" />
<glyph unicode="~" horiz-adv-x="489" d="M401 473Q414 483 422 498T432 533L397 536Q395 521 389 512T374 497Q365 491 356 489T340 487Q326 487 315 492T287 514Q271 531 253 540T213 549Q198 549 183 544T155 527Q143 517 134 502T124 467L160 464Q161 476
165 484T176 498Q186 506 197 509T217 513Q231 513 242 508T269 486Q285 470 303 461T344 452Q359 452 374 457T401 473Z" />
<glyph unicode="&#xa0;" horiz-adv-x="300" />
<glyph unicode="&#xa1;" horiz-adv-x="200" d="M142 486Q142 467 129 455T100 443Q84 443 71 455T58 486Q58 505 71 517T100 530Q116 530 129 518T142 486ZM131 374V-210H68V374H131Z" />
<glyph unicode="&#xa2;" horiz-adv-x="385" d="M253 -68V-7Q285 -3 310 7T359 35L320 83Q307 72 290 65T253 55V320Q267 319 279 315T303 304V233H359V341Q337 358 311 369T253 382V438H189V378Q156 370 128 353T79 310Q59 285 48 254T36 188Q36 153 47 122T79
66Q100 41 128 24T189 -1V-68H253ZM99 188Q99 211 106 231T124 267Q136 283 152 294T189 312V63Q173 67 159 75T134 96Q117 114 108 137T99 188Z" />
<glyph unicode="&#xa3;" horiz-adv-x="574" d="M529 0V162H466V62H166Q182 76 185 97T188 147V284H308V346H188V486Q188 509 196 525T222 552Q238 563 261 567T320 572Q349 572 371 567T406 552Q419 543 427 532T443 509L491 537Q471 577 431 605T317 634Q221
634 173 602T124 500V346H59V284H124V176Q124 141 122 119T115 84Q109 71 99 67T72 62H28V0H529Z" />
<glyph unicode="&#xa4;" horiz-adv-x="500" d="M159 360Q159 379 166 395T185 424Q197 436 213 443T248 450Q265 450 280 444T308 427Q322 414 329 397T337 360Q337 342 330 326T312 298Q299 285 283 278T248 271Q230 271 214 277T187 295Q174 307 167 324T159
360ZM166 232Q184 222 204 216T247 210Q270 210 290 216T328 233L359 204L403 248L375 277Q388 296 394 317T401 361Q401 383 395 403T376 443L403 469L358 514L330 486Q312 498 291 505T247 512Q224 512 204 505T165 486L137 514L92 470L119 442Q108 424 102 404T95
361Q95 338 101 317T121 276L92 247L137 203L166 232Z" />
<glyph unicode="&#xa5;" horiz-adv-x="638" d="M220 0H442V60H367V121H496V183H367V263H495V325H401L587 640H677V700H455V640H510L340 354L329 325H328L316 354L145 640H201V700H-21V640H69L256 325H162V263H290V183H162V121H290V60H220V0Z" />
<glyph unicode="&#xa6;" horiz-adv-x="215" d="M142 -233V117H79V-233H142ZM142 350V700H79V350H142Z" />
<glyph unicode="&#xa7;" horiz-adv-x="500" d="M188 346Q186 358 188 369T195 391Q202 403 212 412T236 425Q248 429 260 429T285 423Q297 418 307 407T322 381Q326 367 325 353T317 326Q311 315 301 307T279 295Q267 291 255 291T231 295Q216 301 204 314T188
346ZM295 1Q311 13 321 27T331 62Q331 78 323 103T297 156L253 228Q264 227 274 227T295 230Q314 234 330 244T359 269Q374 288 382 310T391 358Q391 377 387 394T372 426L283 576Q270 598 264 613T258 640Q258 652 264 660T284 676Q296 683 304 688T325 700Q316
712 309 726T293 753Q276 743 258 733T223 711Q207 700 196 686T185 652Q185 640 191 621T209 580Q219 558 232 534T261 487Q251 489 240 489T219 486Q200 482 184 472T156 448Q141 429 133 406T125 359Q125 337 132 315T153 271L226 150Q242 123 250 104T259 73Q259
61 252 54T234 39Q222 31 214 27T193 15Q201 2 208 -11T225 -38Q241 -29 259 -20T295 1Z" />
<glyph unicode="&#xa8;" horiz-adv-x="370" d="M309 514Q309 533 296 545T267 558Q250 558 237 546T224 514Q224 496 237 484T267 471Q283 471 296 483T309 514ZM143 514Q143 533 130 545T101 558Q85 558 72 546T59 514Q59 496 72 484T101 471Q117 471 130 483T143 514Z" />
<glyph unicode="&#xa9;" horiz-adv-x="793" d="M238 209Q207 239 190 281T172 372Q172 422 189 463T238 536Q269 567 310 584T399 602Q448 602 489 585T562 537Q593 506 610 464T628 372Q628 323 611 281T562 209Q531 178 490 161T399 143Q352 143 311 160T238
209ZM585 187Q620 222 640 269T661 372Q661 428 641 476T585 559Q549 593 502 612T400 632Q346 632 299 613T216 559Q180 524 160 476T139 372Q139 316 159 269T216 187Q251 152 298 133T400 113Q454 113 501 132T585 187ZM500 236L485 259Q470 250 453 246T418
241Q390 241 366 251T324 280Q306 298 296 322T285 375Q285 402 296 427T325 471Q343 489 367 499T418 510Q433 510 447 507T474 498V464H501V515Q482 526 461 531T418 537Q385 537 356 525T304 490Q282 468 270 438T257 375Q257 342 269 312T304 260Q326 238 356
226T418 213Q441 213 461 219T500 236Z" />
<glyph unicode="&#xaa;" horiz-adv-x="585" d="M424 306V349H370V576H333Q332 563 332 552T330 529Q321 548 293 565T227 583Q197 583 171 572T125 541Q106 521 95 495T83 441Q83 412 94 387T125 342Q144 322 170 312T227 301Q248 301 265 306T297 318Q310 326
318 335T330 351Q330 344 330 339T330 327V306H424ZM227 539Q247 539 264 532T295 513Q309 500 317 482T325 442Q325 420 317 402T294 370Q281 358 264 352T227 345Q206 345 188 352T158 372Q145 385 137 403T129 442Q129 461 135 478T155 508Q167 522 186 530T227
539Z" />
<glyph unicode="&#xab;" horiz-adv-x="601" d="M288 239L459 77V149Q437 172 416 194T372 239Q394 262 415 284T459 328V400Q416 359 374 320T288 239ZM117 239L288 77V149Q266 172 245 194T201 239Q223 262 244 283T288 328V400Q245 359 203 320T117 239Z" />
<glyph unicode="&#xac;" horiz-adv-x="559" d="M460 148V246H100V199H396V148H460Z" />
<glyph unicode="&#xad;" horiz-adv-x="300" d="M237 158V219H53V158H237Z" />
<glyph unicode="&#xae;" horiz-adv-x="801" d="M238 209Q207 239 190 281T172 372Q172 422 189 463T238 536Q269 567 310 584T399 602Q448 602 489 585T562 537Q593 506 610 464T628 372Q628 323 611 281T562 209Q531 178 490 161T399 143Q352 143 311 160T238
209ZM585 187Q620 222 640 269T661 372Q661 428 641 476T585 559Q549 593 502 612T400 632Q346 632 299 613T216 559Q180 524 160 476T139 372Q139 316 159 269T216 187Q251 152 298 133T400 113Q454 113 501 132T585 187ZM408 210V238H357V362H387Q393 362 397
362T408 362L480 210H541V238H498L439 364Q474 372 492 395T510 453Q510 476 499 492T472 521Q455 531 436 536T402 541H303V513H328V238H303V210H408ZM357 513H403Q436 513 458 495T480 453Q480 443 477 432T464 412Q455 402 440 396T403 390H357V513Z" />
<glyph unicode="&#xaf;" horiz-adv-x="399" d="M315 482V524H85V482H315Z" />
<glyph unicode="&#xb0;" horiz-adv-x="282" d="M86 559Q86 570 90 579T101 596Q108 603 117 607T138 612Q149 612 158 608T175 597Q182 590 186 580T191 559Q191 548 187 538T174 521Q166 514 157 511T138 507Q128 507 119 510T102 521Q95 528 91 538T86 559ZM231
560Q231 580 224 597T203 627Q190 639 174 646T138 653Q119 653 102 646T72 627Q59 614 51 597T43 560Q43 540 51 523T72 493Q84 481 101 474T138 467Q157 467 174 474T203 493Q216 505 223 522T231 560Z" />
<glyph unicode="&#xb1;" horiz-adv-x="524" d="M298 211V360H446V422H298V571H234V422H86V360H234V211H298ZM446 110V172H86V110H446Z" />
<glyph unicode="&#xb2;" horiz-adv-x="398" d="M316 375V454H286V405H179Q201 429 221 452T259 500Q275 525 285 549T296 599Q296 620 289 638T270 670Q256 684 239 692T199 700Q175 700 157 693T125 671Q113 657 107 639T100 602Q100 582 108 562T132 530L151
549Q141 559 136 572T131 602Q131 611 134 622T145 645Q152 655 165 662T199 670Q209 670 220 666T242 652Q252 643 258 629T265 593Q265 570 251 544T215 491Q193 464 164 435T103 375H316Z" />
<glyph unicode="&#xb3;" horiz-adv-x="419" d="M234 407Q249 421 257 440T266 481Q266 500 260 516T242 546Q231 559 216 568T182 581L260 700H100V644H129V670H207L128 546Q135 550 143 552T159 555Q175 555 188 549T212 534Q223 523 229 510T235 481Q235 466
229 453T212 429Q202 419 189 413T160 406Q143 406 129 413T105 432L83 410Q97 395 116 386T160 376Q182 376 201 384T234 407Z" />
<glyph unicode="&#xb4;" horiz-adv-x="258" d="M147 479Q174 512 200 545T254 612H190Q167 579 145 546T100 479H147Z" />
<glyph unicode="&#xb5;" horiz-adv-x="545" d="M155 -201V12Q167 2 182 -3T217 -8Q272 -8 316 20T381 97L379 52L380 0H507V54H441V375H308V315H378V182Q378 154 366 131T335 90Q315 73 290 64T236 54Q196 56 177 77T155 129V375H22V315H92V-201H155Z" />
<glyph unicode="&#xb6;" horiz-adv-x="541" d="M264 0V696H364V0H507V54H427V696H507V750H201Q167 750 137 737T85 702Q63 680 51 650T38 586Q38 552 50 522T85 470Q107 448 137 436T201 423V0H264Z" />
<glyph unicode="&#xb7;" horiz-adv-x="167" d="M128 282Q128 300 115 312T86 325Q70 325 57 313T44 282Q44 263 57 251T86 239Q102 239 115 251T128 282Z" />
<glyph unicode="&#xb8;" horiz-adv-x="452" d="M308 -138Q308 -116 299 -97T269 -61Q256 -52 242 -43T227 -7V0H187V-29Q187 -47 198 -57T224 -77Q237 -86 248 -98T260 -133Q260 -159 245 -176T204 -194Q182 -194 168 -183T149 -154Q140 -158 130 -163T112 -172Q124
-207 150 -224T209 -242Q255 -242 281 -216T308 -138Z" />
<glyph unicode="&#xb9;" horiz-adv-x="266" d="M166 393V421H129V700H61V672H99V421H63V393H166Z" />
<glyph unicode="&#xba;" horiz-adv-x="469" d="M336 342Q355 361 366 386T377 442Q377 470 366 496T336 542Q317 561 291 572T233 583Q203 583 178 572T132 542Q113 522 102 496T90 442Q90 412 101 387T133 342Q152 322 177 312T233 301Q264 301 290 311T336 342ZM164
373Q151 385 144 403T136 441Q136 461 143 478T164 510Q177 524 194 531T233 539Q252 539 270 531T302 510Q315 496 322 479T330 441Q330 421 323 404T302 373Q288 359 270 352T233 345Q212 345 195 352T164 373Z" />
<glyph unicode="&#xbb;" horiz-adv-x="601" d="M288 239L117 77V149Q139 172 160 194T204 239Q182 262 161 284T117 328V400Q160 359 202 320T288 239ZM459 239L288 77V149Q310 172 331 194T375 239Q353 262 332 283T288 328V400Q331 359 373 320T459 239Z" />
<glyph unicode="&#xbc;" horiz-adv-x="968" d="M331 -19Q401 171 470 358T609 736H545Q475 546 406 359T267 -19H331ZM835 0V45H773V136H845V183H773V490L501 136H726V45H670V0H835ZM726 352V183H596L726 352ZM285 234V277H229V695H126V652H183V277H127V234H285Z" />
<glyph unicode="&#xbd;" horiz-adv-x="1069" d="M280 234V277H224V695H121V652H178V277H122V234H280ZM864 0V113H821V43H668Q699 77 729 111T782 180Q806 215 821 250T836 322Q836 352 826 378T798 424Q779 443 754 454T696 466Q662 466 636 455T591 425Q573 405
564 380T555 325Q555 297 567 268T601 222L628 250Q614 264 607 283T600 325Q600 339 604 355T619 388Q630 402 648 412T696 423Q711 423 727 417T758 398Q772 385 781 364T791 313Q791 280 772 243T720 167Q688 128 646 86T560 0H864ZM331 -19Q401 171 470 358T609
736H545Q475 546 406 359T267 -19H331Z" />
<glyph unicode="&#xbe;" horiz-adv-x="1276" d="M381 247Q404 270 417 300T430 364Q430 394 420 420T393 466Q374 486 350 500T298 521L421 708H170V619H216V659H338L214 465Q225 472 237 475T263 479Q287 479 309 470T346 446Q362 430 371 409T381 364Q381 340
372 319T346 282Q330 265 309 256T263 247Q238 247 216 258T179 287L143 253Q165 229 196 214T263 199Q298 199 328 212T381 247ZM514 -19Q584 171 653 358T792 736H728Q658 546 589 359T450 -19H514ZM1034 0V45H972V136H1044V183H972V490L700 136H925V45H868V0H1034ZM925
352V183H795L925 352Z" />
<glyph unicode="&#xbf;" horiz-adv-x="440" d="M222 375V297Q222 268 214 250T192 218Q178 205 162 195T130 173Q85 140 59 99T32 2Q32 -38 47 -73T89 -135Q115 -162 151 -177T228 -193Q274 -193 307 -179T364 -143Q387 -122 401 -96T424 -46Q410 -41 396 -36T368
-26Q361 -48 351 -65T327 -96Q309 -113 285 -122T228 -131Q200 -131 176 -122T135 -95Q117 -77 107 -52T97 2Q97 39 113 71T163 130Q187 149 208 163T248 192Q265 207 275 226T286 278V375H222ZM213 489Q213 470 226 458T255 446Q271 446 284 458T297 489Q297 508
284 520T255 532Q239 532 226 520T213 489Z" />
<glyph unicode="&#xc0;" horiz-adv-x="800" d="M243 0V60H178Q207 129 226 174T275 288H525Q549 231 572 174T621 60H557V0H765V60H685Q614 230 543 396T400 732Q329 562 258 396T115 60H35V0H243ZM389 561Q391 566 393 573T399 592L409 561L499 348H301Q322 399
344 453T389 561ZM419 750Q396 783 374 816T329 883H265Q292 850 318 817T372 750H419Z" />
<glyph unicode="&#xc1;" horiz-adv-x="800" d="M425 750Q452 783 478 816T532 883H468Q445 850 423 817T378 750H425ZM243 0V60H178Q207 129 226 174T275 288H525Q549 231 572 174T621 60H557V0H765V60H685Q614 230 543 396T400 732Q329 562 258 396T115 60H35V0H243ZM389
561Q391 566 393 573T399 592L409 561L499 348H301Q322 399 344 453T389 561Z" />
<glyph unicode="&#xc2;" horiz-adv-x="800" d="M327 750Q345 774 363 798T400 846Q418 822 436 798T473 750H520Q490 795 460 840T400 931Q370 886 340 841T280 750H327ZM243 0V60H178Q207 129 226 174T275 288H525Q549 231 572 174T621 60H557V0H765V60H685Q614
230 543 396T400 732Q329 562 258 396T115 60H35V0H243ZM389 561Q391 566 393 573T399 592L409 561L499 348H301Q322 399 344 453T389 561Z" />
<glyph unicode="&#xc3;" horiz-adv-x="800" d="M522 774Q535 784 543 799T553 834L518 837Q516 822 510 813T495 798Q486 792 477 790T461 788Q447 788 436 793T408 815Q392 832 374 841T334 850Q319 850 304 845T276 828Q264 818 255 803T245 768L281 765Q282
777 286 785T297 799Q307 807 318 810T338 814Q352 814 363 809T390 787Q406 771 424 762T465 753Q480 753 495 758T522 774ZM243 0V60H178Q207 129 226 174T275 288H525Q549 231 572 174T621 60H557V0H765V60H685Q614 230 543 396T400 732Q329 562 258 396T115
60H35V0H243ZM389 561Q391 566 393 573T399 592L409 561L499 348H301Q322 399 344 453T389 561Z" />
<glyph unicode="&#xc4;" horiz-adv-x="800" d="M525 804Q525 823 512 835T483 848Q466 848 453 836T440 804Q440 786 453 774T483 761Q499 761 512 773T525 804ZM359 804Q359 823 346 835T317 848Q301 848 288 836T275 804Q275 786 288 774T317 761Q333 761 346
773T359 804ZM243 0V60H178Q207 129 226 174T275 288H525Q549 231 572 174T621 60H557V0H765V60H685Q614 230 543 396T400 732Q329 562 258 396T115 60H35V0H243ZM389 561Q391 566 393 573T399 592L409 561L499 348H301Q322 399 344 453T389 561Z" />
<glyph unicode="&#xc5;" horiz-adv-x="800" d="M243 0V60H178Q207 129 226 174T275 288H525Q549 231 572 174T621 60H557V0H765V60H685Q614 230 543 396T400 732Q329 562 258 396T115 60H35V0H243ZM389 561Q391 566 393 573T399 592L409 561L499 348H301Q322 399
344 453T389 561ZM363 836Q363 852 373 863T400 874Q416 874 426 863T437 836Q437 821 426 810T400 799Q383 799 373 810T363 836ZM480 837Q480 854 474 868T455 894Q444 905 430 911T400 917Q383 917 369 911T343 892Q332 882 326 868T320 837Q320 820 326 806T344
780Q355 769 369 763T400 757Q416 757 430 763T455 780Q467 791 473 805T480 837Z" />
<glyph unicode="&#xc6;" horiz-adv-x="776" d="M243 0V60H177Q201 115 224 169T271 279H395V0H741V154H681V60H458V323H688V383H458V640H667V546H727V700H385Q317 539 250 380T114 60H35V0H243ZM395 582V339H296Q321 400 348 460T395 582Z" />
<glyph unicode="&#xc7;" horiz-adv-x="583" d="M483 -138Q483 -116 474 -97T444 -61Q433 -53 421 -47T403 -22Q403 -20 403 -17T402 -8Q449 -7 492 6T574 42L539 92Q506 73 469 63T391 52Q330 52 277 75T185 140Q144 179 121 233T98 349Q98 410 121 464T185 560Q224
601 277 624T392 648Q424 648 455 641T515 619V450H575V658Q534 682 489 695T392 708Q318 708 253 680T140 603Q91 554 63 489T35 349Q35 279 60 217T130 107Q174 59 233 30T362 -6V-29Q362 -47 373 -57T399 -77Q412 -86 423 -98T435 -133Q435 -159 420 -176T379
-194Q357 -194 343 -183T324 -154L287 -172Q299 -207 325 -224T384 -242Q430 -242 456 -213T483 -138Z" />
<glyph unicode="&#xc8;" horiz-adv-x="571" d="M536 0V154H476V60H162V323H483V383H162V640H462V546H522V700H35V640H99V60H35V0H536ZM315 750Q292 783 270 816T225 883H161Q188 850 214 817T268 750H315Z" />
<glyph unicode="&#xc9;" horiz-adv-x="571" d="M536 0V154H476V60H162V323H483V383H162V640H462V546H522V700H35V640H99V60H35V0H536ZM314 750Q341 783 367 816T421 883H357Q334 850 312 817T267 750H314Z" />
<glyph unicode="&#xca;" horiz-adv-x="571" d="M536 0V154H476V60H162V323H483V383H162V640H462V546H522V700H35V640H99V60H35V0H536ZM227 750Q245 774 263 798T300 846Q318 822 336 798T373 750H420Q390 795 360 840T300 931Q270 886 240 841T180 750H227Z" />
<glyph unicode="&#xcb;" horiz-adv-x="571" d="M536 0V154H476V60H162V323H483V383H162V640H462V546H522V700H35V640H99V60H35V0H536ZM417 804Q417 823 404 835T375 848Q358 848 345 836T332 804Q332 786 345 774T375 761Q391 761 404 773T417 804ZM251 804Q251
823 238 835T209 848Q193 848 180 836T167 804Q167 786 180 774T209 761Q225 761 238 773T251 804Z" />
<glyph unicode="&#xcc;" horiz-adv-x="292" d="M257 0V60H176V640H257V700H35V640H113V60H35V0H257ZM159 750Q136 783 114 816T69 883H5Q32 850 58 817T112 750H159Z" />
<glyph unicode="&#xcd;" horiz-adv-x="292" d="M257 0V60H176V640H257V700H35V640H113V60H35V0H257ZM177 750Q204 783 230 816T284 883H220Q197 850 175 817T130 750H177Z" />
<glyph unicode="&#xce;" horiz-adv-x="292" d="M257 0V60H176V640H257V700H35V640H113V60H35V0H257ZM74 750Q92 774 110 798T147 846Q165 822 183 798T220 750H267Q237 795 207 840T147 931Q117 886 87 841T27 750H74Z" />
<glyph unicode="&#xcf;" horiz-adv-x="292" d="M257 0V60H176V640H257V700H35V640H113V60H35V0H257ZM272 804Q272 823 259 835T230 848Q213 848 200 836T187 804Q187 786 200 774T230 761Q246 761 259 773T272 804ZM106 804Q106 823 93 835T64 848Q48 848 35 836T22
804Q22 786 35 774T64 761Q80 761 93 773T106 804Z" />
<glyph unicode="&#xd0;" horiz-adv-x="632" d="M211 0Q317 0 390 32T510 116Q556 167 576 228T597 350Q597 430 569 494T493 606Q445 651 381 675T245 700H35V640H90V381H44V320H90V60H35V0H211ZM153 320H346V381H153V640H240Q301 640 354 620T449 562Q488 524
511 470T534 350Q534 289 513 237T454 145Q414 106 358 83T231 60H153V320Z" />
<glyph unicode="&#xd1;" horiz-adv-x="813" d="M730 640H816V700H593V640H667V140L670 108L651 134L147 700H35V640H119V60H35V0H257V60H182V552L179 582L198 558L730 -32V640ZM526 765Q539 775 547 790T557 825L522 828Q520 813 514 804T499 789Q490 783 481
781T465 779Q451 779 440 784T412 806Q396 823 378 832T338 841Q323 841 308 836T280 819Q268 809 259 794T249 759L285 756Q286 768 290 776T301 790Q311 798 322 801T342 805Q356 805 367 800T394 778Q410 762 428 753T469 744Q484 744 499 749T526 765Z" />
<glyph unicode="&#xd2;" horiz-adv-x="786" d="M645 97Q694 145 722 210T751 349Q751 423 723 488T645 602Q596 651 531 679T392 708Q318 708 253 680T140 602Q91 553 63 488T35 349Q35 275 63 210T140 97Q188 48 253 20T392 -8Q466 -8 531 20T645 97ZM185 140Q144
179 121 233T98 349Q98 410 121 464T185 559Q224 600 278 623T393 647Q454 647 507 624T602 559Q641 519 664 465T688 349Q688 288 665 234T601 140Q561 99 507 76T392 52Q331 52 278 75T185 140ZM421 750Q398 783 376 816T331 883H267Q294 850 320 817T374 750H421Z"
/>
<glyph unicode="&#xd3;" horiz-adv-x="786" d="M645 97Q694 145 722 210T751 349Q751 423 723 488T645 602Q596 651 531 679T392 708Q318 708 253 680T140 602Q91 553 63 488T35 349Q35 275 63 210T140 97Q188 48 253 20T392 -8Q466 -8 531 20T645 97ZM185 140Q144
179 121 233T98 349Q98 410 121 464T185 559Q224 600 278 623T393 647Q454 647 507 624T602 559Q641 519 664 465T688 349Q688 288 665 234T601 140Q561 99 507 76T392 52Q331 52 278 75T185 140ZM427 750Q454 783 480 816T534 883H470Q447 850 425 817T380 750H427Z"
/>
<glyph unicode="&#xd4;" horiz-adv-x="786" d="M645 97Q694 145 722 210T751 349Q751 423 723 488T645 602Q596 651 531 679T392 708Q318 708 253 680T140 602Q91 553 63 488T35 349Q35 275 63 210T140 97Q188 48 253 20T392 -8Q466 -8 531 20T645 97ZM185 140Q144
179 121 233T98 349Q98 410 121 464T185 559Q224 600 278 623T393 647Q454 647 507 624T602 559Q641 519 664 465T688 349Q688 288 665 234T601 140Q561 99 507 76T392 52Q331 52 278 75T185 140ZM324 750Q342 774 360 798T397 846Q415 822 433 798T470 750H517Q487
795 457 840T397 931Q367 886 337 841T277 750H324Z" />
<glyph unicode="&#xd5;" horiz-adv-x="786" d="M645 97Q694 145 722 210T751 349Q751 423 723 488T645 602Q596 651 531 679T392 708Q318 708 253 680T140 602Q91 553 63 488T35 349Q35 275 63 210T140 97Q188 48 253 20T392 -8Q466 -8 531 20T645 97ZM185 140Q144
179 121 233T98 349Q98 410 121 464T185 559Q224 600 278 623T393 647Q454 647 507 624T602 559Q641 519 664 465T688 349Q688 288 665 234T601 140Q561 99 507 76T392 52Q331 52 278 75T185 140ZM518 790Q531 800 539 815T549 850L514 853Q512 838 506 829T491
814Q482 808 473 806T457 804Q443 804 432 809T404 831Q388 848 370 857T330 866Q315 866 300 861T272 844Q260 834 251 819T241 784L277 781Q278 793 282 801T293 815Q303 823 314 826T334 830Q348 830 359 825T386 803Q402 787 420 778T461 769Q476 769 491 774T518
790Z" />
<glyph unicode="&#xd6;" horiz-adv-x="786" d="M645 97Q694 145 722 210T751 349Q751 423 723 488T645 602Q596 651 531 679T392 708Q318 708 253 680T140 602Q91 553 63 488T35 349Q35 275 63 210T140 97Q188 48 253 20T392 -8Q466 -8 531 20T645 97ZM185 140Q144
179 121 233T98 349Q98 410 121 464T185 559Q224 600 278 623T393 647Q454 647 507 624T602 559Q641 519 664 465T688 349Q688 288 665 234T601 140Q561 99 507 76T392 52Q331 52 278 75T185 140ZM523 804Q523 823 510 835T481 848Q464 848 451 836T438 804Q438
786 451 774T481 761Q497 761 510 773T523 804ZM357 804Q357 823 344 835T315 848Q299 848 286 836T273 804Q273 786 286 774T315 761Q331 761 344 773T357 804Z" />
<glyph unicode="&#xd7;" horiz-adv-x="500" d="M264 105L370 0L415 45L310 151L414 255L371 299L266 194L160 300L115 255L221 149L116 44L160 1L264 105Z" />
<glyph unicode="&#xd8;" horiz-adv-x="786" d="M98 349Q98 410 121 464T185 560Q224 601 277 624T392 648Q439 648 481 634T560 594Q464 480 370 370T178 145Q141 185 120 237T98 349ZM222 107Q329 232 412 331T603 555Q642 515 665 462T688 349Q688 288 665 234T601
140Q560 99 506 76T391 52Q343 52 301 66T222 107ZM182 60Q226 28 279 10T392 -8Q466 -8 531 20T646 97Q694 145 722 210T751 349Q751 424 722 489T644 603Q660 622 676 640T708 677Q697 687 686 696T664 716Q648 697 632 679T600 641Q556 672 503 690T392 708Q318
708 253 680T140 603Q91 554 63 489T35 349Q35 275 62 211T138 98Q122 80 107 61T75 24Q86 14 97 5T119 -14Q135 4 150 23T182 60Z" />
<glyph unicode="&#xd9;" horiz-adv-x="713" d="M530 52Q563 81 582 125T601 226V640H678V700H456V640H538V229Q538 186 525 153T487 98Q462 75 429 64T356 52Q317 52 284 63T226 98Q202 120 189 153T175 229V640H257V700H35V640H112V226Q112 169 130 125T182 52Q214
22 259 7T356 -8Q408 -8 453 7T530 52ZM375 750Q352 783 330 816T285 883H221Q248 850 274 817T328 750H375Z" />
<glyph unicode="&#xda;" horiz-adv-x="713" d="M530 52Q563 81 582 125T601 226V640H678V700H456V640H538V229Q538 186 525 153T487 98Q462 75 429 64T356 52Q317 52 284 63T226 98Q202 120 189 153T175 229V640H257V700H35V640H112V226Q112 169 130 125T182 52Q214
22 259 7T356 -8Q408 -8 453 7T530 52ZM387 750Q414 783 440 816T494 883H430Q407 850 385 817T340 750H387Z" />
<glyph unicode="&#xdb;" horiz-adv-x="713" d="M530 52Q563 81 582 125T601 226V640H678V700H456V640H538V229Q538 186 525 153T487 98Q462 75 429 64T356 52Q317 52 284 63T226 98Q202 120 189 153T175 229V640H257V700H35V640H112V226Q112 169 130 125T182 52Q214
22 259 7T356 -8Q408 -8 453 7T530 52ZM285 751Q303 775 321 799T358 847Q376 823 394 799T431 751H478Q448 796 418 841T358 932Q328 887 298 842T238 751H285Z" />
<glyph unicode="&#xdc;" horiz-adv-x="713" d="M530 52Q563 81 582 125T601 226V640H678V700H456V640H538V229Q538 186 525 153T487 98Q462 75 429 64T356 52Q317 52 284 63T226 98Q202 120 189 153T175 229V640H257V700H35V640H112V226Q112 169 130 125T182 52Q214
22 259 7T356 -8Q408 -8 453 7T530 52ZM482 804Q482 823 469 835T440 848Q423 848 410 836T397 804Q397 786 410 774T440 761Q456 761 469 773T482 804ZM316 804Q316 823 303 835T274 848Q258 848 245 836T232 804Q232 786 245 774T274 761Q290 761 303 773T316
804Z" />
<glyph unicode="&#xdd;" horiz-adv-x="768" d="M498 0V60H423V267Q478 360 533 453T643 640H733V700H511V640H566L397 354L385 325H384L373 354Q330 426 288 497T201 640H257V700H35V640H125Q180 547 235 454T346 268V60H276V0H498ZM419 750Q446 783 472 816T526
883H462Q439 850 417 817T372 750H419Z" />
<glyph unicode="&#xde;" horiz-adv-x="525" d="M257 0V60H169V155H279Q381 155 435 207T490 348Q490 399 467 434T410 492Q376 514 336 524T264 535H169V640H243V700H35V640H106V60H35V0H257ZM169 476H265Q299 476 329 466T381 438Q402 420 414 397T427 348Q427
327 420 304T394 261Q375 242 344 229T264 216H169V476Z" />
<glyph unicode="&#xdf;" horiz-adv-x="554" d="M456 53Q485 83 502 121T519 204Q519 240 508 271T478 329Q462 348 443 363T401 390Q427 408 443 437T459 502Q459 534 447 562T413 611Q392 633 364 645T304 657Q264 657 228 641T163 595Q135 565 119 522T102 424V406H40V344H102V60H35V0H165V421Q165
462 176 494T206 550Q225 571 249 583T303 596Q321 596 338 589T367 571Q380 557 388 539T396 501Q396 461 369 438T302 415V353Q333 353 361 342T411 310Q432 289 444 262T456 204Q456 173 444 146T410 98Q390 77 363 65T304 53Q286 53 270 57T238 69L212 13Q232
2 255 -3T304 -9Q348 -9 387 8T456 53Z" />
<glyph unicode="&#xe0;" horiz-adv-x="543" d="M508 0V60H433V375H381Q380 358 379 341T377 308Q365 336 328 360T234 384Q192 384 156 368T93 325Q66 299 51 263T35 187Q35 147 50 112T93 50Q119 23 155 8T234 -8Q264 -8 288 -1T332 18Q350 28 361 40T377 62Q377
53 377 46T377 30V0H508ZM234 322Q262 322 286 313T329 285Q348 268 359 243T370 188Q370 159 359 134T329 90Q311 73 287 63T234 53Q207 53 185 62T145 86Q123 104 111 130T99 188Q99 216 108 239T135 281Q152 301 178 311T234 322ZM270 479Q247 512 225 545T180
612H116Q143 579 169 546T223 479H270Z" />
<glyph unicode="&#xe1;" horiz-adv-x="543" d="M508 0V60H433V375H381Q380 358 379 341T377 308Q365 336 328 360T234 384Q192 384 156 368T93 325Q66 299 51 263T35 187Q35 147 50 112T93 50Q119 23 155 8T234 -8Q264 -8 288 -1T332 18Q350 28 361 40T377 62Q377
53 377 46T377 30V0H508ZM234 322Q262 322 286 313T329 285Q348 268 359 243T370 188Q370 159 359 134T329 90Q311 73 287 63T234 53Q207 53 185 62T145 86Q123 104 111 130T99 188Q99 216 108 239T135 281Q152 301 178 311T234 322ZM279 479Q306 512 332 545T386
612H322Q299 579 277 546T232 479H279Z" />
<glyph unicode="&#xe2;" horiz-adv-x="543" d="M508 0V60H433V375H381Q380 358 379 341T377 308Q365 336 328 360T234 384Q192 384 156 368T93 325Q66 299 51 263T35 187Q35 147 50 112T93 50Q119 23 155 8T234 -8Q264 -8 288 -1T332 18Q350 28 361 40T377 62Q377
53 377 46T377 30V0H508ZM234 322Q262 322 286 313T329 285Q348 268 359 243T370 188Q370 159 359 134T329 90Q311 73 287 63T234 53Q207 53 185 62T145 86Q123 104 111 130T99 188Q99 216 108 239T135 281Q152 301 178 311T234 322ZM188 479Q206 503 224 527T261
575Q279 551 297 527T334 479H381Q351 524 321 569T261 660Q231 615 201 570T141 479H188Z" />
<glyph unicode="&#xe3;" horiz-adv-x="543" d="M508 0V60H433V375H381Q380 358 379 341T377 308Q365 336 328 360T234 384Q192 384 156 368T93 325Q66 299 51 263T35 187Q35 147 50 112T93 50Q119 23 155 8T234 -8Q264 -8 288 -1T332 18Q350 28 361 40T377 62Q377
53 377 46T377 30V0H508ZM234 322Q262 322 286 313T329 285Q348 268 359 243T370 188Q370 159 359 134T329 90Q311 73 287 63T234 53Q207 53 185 62T145 86Q123 104 111 130T99 188Q99 216 108 239T135 281Q152 301 178 311T234 322ZM616 473Q629 483 637 498T647
533L612 536Q610 521 604 512T589 497Q580 491 571 489T555 487Q541 487 530 492T502 514Q486 531 468 540T428 549Q413 549 398 544T370 527Q358 517 349 502T339 467L375 464Q376 476 380 484T391 498Q401 506 412 509T432 513Q446 513 457 508T484 486Q500 470
518 461T559 452Q574 452 589 457T616 473Z" />
<glyph unicode="&#xe4;" horiz-adv-x="543" d="M508 0V60H433V375H381Q380 358 379 341T377 308Q365 336 328 360T234 384Q192 384 156 368T93 325Q66 299 51 263T35 187Q35 147 50 112T93 50Q119 23 155 8T234 -8Q264 -8 288 -1T332 18Q350 28 361 40T377 62Q377
53 377 46T377 30V0H508ZM234 322Q262 322 286 313T329 285Q348 268 359 243T370 188Q370 159 359 134T329 90Q311 73 287 63T234 53Q207 53 185 62T145 86Q123 104 111 130T99 188Q99 216 108 239T135 281Q152 301 178 311T234 322ZM367 514Q367 533 354 545T325
558Q308 558 295 546T282 514Q282 496 295 484T325 471Q341 471 354 483T367 514ZM201 514Q201 533 188 545T159 558Q143 558 130 546T117 514Q117 496 130 484T159 471Q175 471 188 483T201 514Z" />
<glyph unicode="&#xe5;" horiz-adv-x="543" d="M508 0V60H433V375H381Q380 358 379 341T377 308Q365 336 328 360T234 384Q192 384 156 368T93 325Q66 299 51 263T35 187Q35 147 50 112T93 50Q119 23 155 8T234 -8Q264 -8 288 -1T332 18Q350 28 361 40T377 62Q377
53 377 46T377 30V0H508ZM234 322Q262 322 286 313T329 285Q348 268 359 243T370 188Q370 159 359 134T329 90Q311 73 287 63T234 53Q207 53 185 62T145 86Q123 104 111 130T99 188Q99 216 108 239T135 281Q152 301 178 311T234 322ZM208 539Q208 555 218 566T245
577Q261 577 271 566T282 539Q282 524 271 513T245 502Q228 502 218 513T208 539ZM325 540Q325 557 319 571T300 597Q289 608 275 614T245 620Q228 620 214 614T188 595Q177 585 171 571T165 540Q165 523 171 509T189 483Q200 472 214 466T245 460Q261 460 275
466T300 483Q312 494 318 508T325 540Z" />
<glyph unicode="&#xe6;" horiz-adv-x="603" d="M350 242Q350 264 348 281T338 309Q351 316 365 318T394 321Q424 321 448 305T488 264Q454 251 420 238T350 212V242ZM99 103Q99 120 112 128T144 141Q163 145 184 145T220 146H287V107Q287 88 278 77T256 61Q242
55 226 54T194 52Q179 52 163 53T134 60Q119 66 109 76T99 103ZM301 14Q322 2 345 -3T394 -9Q433 -9 465 5T523 43L484 89Q467 71 444 62T394 52Q379 52 364 55T335 64Q344 78 347 93T350 129V145Q405 166 459 187T568 229Q559 262 543 290T505 338Q482 359 454
370T394 382Q371 382 349 377T305 362Q288 372 261 377T195 382Q177 382 157 378T118 368Q99 361 82 352T55 332Q64 321 72 312T90 291Q97 296 110 301T137 311Q151 316 166 318T194 321Q224 321 242 317T271 302Q280 292 283 278T287 244V212H181Q153 212 127
207T81 189Q60 177 48 157T35 106Q35 72 46 50T79 14Q100 1 129 -4T194 -10Q229 -10 256 -4T301 14Z" />
<glyph unicode="&#xe7;" horiz-adv-x="395" d="M317 -138Q317 -116 308 -97T278 -61Q264 -52 250 -42T236 -8Q270 -8 302 4T358 35L320 83Q303 68 281 61T234 53Q207 53 183 62T142 88Q122 106 111 132T99 188Q99 217 109 242T138 285Q157 303 181 312T234 322Q253
322 270 318T302 304V233H360V341Q334 361 302 372T234 384Q192 384 156 369T93 326Q66 300 51 264T36 188Q36 152 48 120T82 63Q103 37 132 20T196 -3V-28Q196 -45 207 -56T232 -77Q246 -86 257 -98T269 -133Q269 -159 254 -176T213 -194Q192 -194 178 -183T158
-154L121 -172Q133 -208 159 -225T218 -242Q265 -242 291 -212T317 -138Z" />
<glyph unicode="&#xe8;" horiz-adv-x="446" d="M233 322Q263 322 287 307T327 265Q270 244 214 222T100 178Q97 206 105 231T128 275Q147 297 173 309T233 322ZM362 45L323 90Q306 72 283 63T233 53Q194 53 164 71T117 119Q190 147 262 174T407 230Q398 263 382
291T343 340Q320 360 292 372T233 384Q192 384 156 369T93 327Q66 300 51 264T35 188Q35 147 50 112T93 49Q119 23 155 8T233 -8Q272 -8 304 6T362 45ZM248 479Q225 512 203 545T158 612H94Q121 579 147 546T201 479H248Z" />
<glyph unicode="&#xe9;" horiz-adv-x="446" d="M233 322Q263 322 287 307T327 265Q270 244 214 222T100 178Q97 206 105 231T128 275Q147 297 173 309T233 322ZM362 45L323 90Q306 72 283 63T233 53Q194 53 164 71T117 119Q190 147 262 174T407 230Q398 263 382
291T343 340Q320 360 292 372T233 384Q192 384 156 369T93 327Q66 300 51 264T35 188Q35 147 50 112T93 49Q119 23 155 8T233 -8Q272 -8 304 6T362 45ZM270 479Q297 512 323 545T377 612H313Q290 579 268 546T223 479H270Z" />
<glyph unicode="&#xea;" horiz-adv-x="446" d="M233 322Q263 322 287 307T327 265Q270 244 214 222T100 178Q97 206 105 231T128 275Q147 297 173 309T233 322ZM362 45L323 90Q306 72 283 63T233 53Q194 53 164 71T117 119Q190 147 262 174T407 230Q398 263 382
291T343 340Q320 360 292 372T233 384Q192 384 156 369T93 327Q66 300 51 264T35 188Q35 147 50 112T93 49Q119 23 155 8T233 -8Q272 -8 304 6T362 45ZM413 479Q431 503 449 527T486 575Q504 551 522 527T559 479H606Q576 524 546 569T486 660Q456 615 426 570T366
479H413Z" />
<glyph unicode="&#xeb;" horiz-adv-x="446" d="M233 322Q263 322 287 307T327 265Q270 244 214 222T100 178Q97 206 105 231T128 275Q147 297 173 309T233 322ZM362 45L323 90Q306 72 283 63T233 53Q194 53 164 71T117 119Q190 147 262 174T407 230Q398 263 382
291T343 340Q320 360 292 372T233 384Q192 384 156 369T93 327Q66 300 51 264T35 188Q35 147 50 112T93 49Q119 23 155 8T233 -8Q272 -8 304 6T362 45ZM356 514Q356 533 343 545T314 558Q297 558 284 546T271 514Q271 496 284 484T314 471Q330 471 343 483T356
514ZM190 514Q190 533 177 545T148 558Q132 558 119 546T106 514Q106 496 119 484T148 471Q164 471 177 483T190 514Z" />
<glyph unicode="&#xec;" horiz-adv-x="278" d="M243 0V60H171V375H35V315H108V60H35V0H243ZM161 479Q138 512 116 545T71 612H7Q34 579 60 546T114 479H161Z" />
<glyph unicode="&#xed;" horiz-adv-x="278" d="M243 0V60H171V375H35V315H108V60H35V0H243ZM165 479Q192 512 218 545T272 612H208Q185 579 163 546T118 479H165Z" />
<glyph unicode="&#xee;" horiz-adv-x="278" d="M243 0V60H171V375H35V315H108V60H35V0H243ZM324 479Q342 503 360 527T397 575Q415 551 433 527T470 479H517Q487 524 457 569T397 660Q367 615 337 570T277 479H324Z" />
<glyph unicode="&#xef;" horiz-adv-x="278" d="M243 0V60H171V375H35V315H108V60H35V0H243ZM522 514Q522 533 509 545T480 558Q463 558 450 546T437 514Q437 496 450 484T480 471Q496 471 509 483T522 514ZM356 514Q356 533 343 545T314 558Q298 558 285 546T272
514Q272 496 285 484T314 471Q330 471 343 483T356 514Z" />
<glyph unicode="&#xf0;" horiz-adv-x="468" d="M139 93Q120 111 110 135T99 188Q98 216 107 240T135 284Q152 302 177 313T232 324Q260 325 285 315T329 288Q347 270 358 246T370 192Q370 164 360 140T332 97Q314 78 290 67T236 56Q207 55 182 65T139 93ZM378
55Q404 82 418 117T433 194Q433 245 419 299T381 407Q357 460 326 511T261 605Q276 621 290 637T320 669Q310 679 299 688T277 708Q264 693 251 679T224 650Q201 675 179 696T133 735L88 693Q112 672 135 649T180 602Q165 586 150 569T118 536L162 496L216 555Q236
529 252 504T282 453Q296 427 306 402T322 354Q304 368 280 376T230 385Q188 384 153 368T91 325Q64 299 49 263T35 186Q36 145 52 110T96 49Q124 23 160 8T238 -6Q280 -5 316 11T378 55Z" />
<glyph unicode="&#xf1;" horiz-adv-x="563" d="M243 0V60H175V193Q175 221 186 244T218 285Q237 302 262 311T317 321Q357 319 376 298T398 246V60H320V0H528V60H461V271Q459 321 426 352T335 383Q281 383 237 355T172 278Q170 299 169 315T167 353L166 375H43V315H112V60H35V0H243ZM405
723Q418 733 426 748T436 783L401 786Q399 771 393 762T378 747Q369 741 360 739T344 737Q330 737 319 742T291 764Q275 781 257 790T217 799Q202 799 187 794T159 777Q147 767 138 752T128 717L164 714Q165 726 169 734T180 748Q190 756 201 759T221 763Q235 763
246 758T273 736Q289 720 307 711T348 702Q363 702 378 707T405 723Z" />
<glyph unicode="&#xf2;" horiz-adv-x="468" d="M375 50Q402 76 417 111T433 188Q433 228 418 264T376 327Q348 353 312 368T234 384Q192 384 156 369T93 327Q66 300 51 264T35 188Q35 147 50 112T93 50Q120 23 156 8T234 -8Q275 -8 311 7T375 50ZM138 93Q119 111
109 135T98 188Q98 215 108 239T138 283Q156 301 180 311T232 322Q260 322 284 312T328 283Q346 264 356 240T367 187Q367 159 357 135T328 93Q309 74 285 64T232 53Q204 53 180 63T138 93ZM248 479Q225 512 203 545T158 612H94Q121 579 147 546T201 479H248Z"
/>
<glyph unicode="&#xf3;" horiz-adv-x="468" d="M375 50Q402 76 417 111T433 188Q433 228 418 264T376 327Q348 353 312 368T234 384Q192 384 156 369T93 327Q66 300 51 264T35 188Q35 147 50 112T93 50Q120 23 156 8T234 -8Q275 -8 311 7T375 50ZM138 93Q119 111
109 135T98 188Q98 215 108 239T138 283Q156 301 180 311T232 322Q260 322 284 312T328 283Q346 264 356 240T367 187Q367 159 357 135T328 93Q309 74 285 64T232 53Q204 53 180 63T138 93ZM278 479Q305 512 331 545T385 612H321Q298 579 276 546T231 479H278Z"
/>
<glyph unicode="&#xf4;" horiz-adv-x="468" d="M375 50Q402 76 417 111T433 188Q433 228 418 264T376 327Q348 353 312 368T234 384Q192 384 156 369T93 327Q66 300 51 264T35 188Q35 147 50 112T93 50Q120 23 156 8T234 -8Q275 -8 311 7T375 50ZM138 93Q119 111
109 135T98 188Q98 215 108 239T138 283Q156 301 180 311T232 322Q260 322 284 312T328 283Q346 264 356 240T367 187Q367 159 357 135T328 93Q309 74 285 64T232 53Q204 53 180 63T138 93ZM162 479Q180 503 198 527T235 575Q253 551 271 527T308 479H355Q325 524
295 569T235 660Q205 615 175 570T115 479H162Z" />
<glyph unicode="&#xf5;" horiz-adv-x="468" d="M375 50Q402 76 417 111T433 188Q433 228 418 264T376 327Q348 353 312 368T234 384Q192 384 156 369T93 327Q66 300 51 264T35 188Q35 147 50 112T93 50Q120 23 156 8T234 -8Q275 -8 311 7T375 50ZM138 93Q119 111
109 135T98 188Q98 215 108 239T138 283Q156 301 180 311T232 322Q260 322 284 312T328 283Q346 264 356 240T367 187Q367 159 357 135T328 93Q309 74 285 64T232 53Q204 53 180 63T138 93ZM620 473Q633 483 641 498T651 533L616 536Q614 521 608 512T593 497Q584
491 575 489T559 487Q545 487 534 492T506 514Q490 531 472 540T432 549Q417 549 402 544T374 527Q362 517 353 502T343 467L379 464Q380 476 384 484T395 498Q405 506 416 509T436 513Q450 513 461 508T488 486Q504 470 522 461T563 452Q578 452 593 457T620 473Z"
/>
<glyph unicode="&#xf6;" horiz-adv-x="468" d="M375 50Q402 76 417 111T433 188Q433 228 418 264T376 327Q348 353 312 368T234 384Q192 384 156 369T93 327Q66 300 51 264T35 188Q35 147 50 112T93 50Q120 23 156 8T234 -8Q275 -8 311 7T375 50ZM138 93Q119 111
109 135T98 188Q98 215 108 239T138 283Q156 301 180 311T232 322Q260 322 284 312T328 283Q346 264 356 240T367 187Q367 159 357 135T328 93Q309 74 285 64T232 53Q204 53 180 63T138 93ZM360 514Q360 533 347 545T318 558Q301 558 288 546T275 514Q275 496 288
484T318 471Q334 471 347 483T360 514ZM194 514Q194 533 181 545T152 558Q136 558 123 546T110 514Q110 496 123 484T152 471Q168 471 181 483T194 514Z" />
<glyph unicode="&#xf7;" horiz-adv-x="501" d="M428 207V269H68V207H428ZM293 364Q293 382 280 394T251 407Q234 407 221 395T208 364Q208 345 221 333T251 321Q267 321 280 333T293 364ZM293 114Q293 132 280 144T251 157Q234 157 221 145T208 114Q208 95 221
83T251 71Q267 71 280 83T293 114Z" />
<glyph unicode="&#xf8;" horiz-adv-x="467" d="M98 188Q98 216 108 240T136 283Q154 301 179 311T233 322Q250 322 266 318T296 307Q253 256 211 206T126 106Q112 123 105 143T98 188ZM160 75Q212 136 246 177T333 279Q350 262 359 238T369 188Q369 156 357 130T323
86Q305 71 283 62T233 53Q213 53 195 58T160 75ZM119 28Q143 11 172 2T233 -8Q275 -8 311 7T375 50Q402 76 417 111T433 188Q433 228 417 264T374 326Q382 336 390 345T407 365Q399 373 390 380T373 396Q364 385 355 375T338 355Q315 369 289 376T233 384Q192 384
156 369T93 327Q66 300 51 264T35 188Q35 150 48 117T85 58Q74 45 64 33T43 9Q51 1 60 -6T78 -21Q89 -9 99 3T119 28Z" />
<glyph unicode="&#xf9;" horiz-adv-x="555" d="M394 97L392 52L393 0H520V54H454V375H321V315H391V182Q391 154 379 131T347 90Q328 73 303 64T249 54Q209 56 190 77T168 129V375H35V315H105V104Q107 54 140 23T230 -8Q285 -8 329 20T394 97ZM288 479Q265 512
243 545T198 612H134Q161 579 187 546T241 479H288Z" />
<glyph unicode="&#xfa;" horiz-adv-x="555" d="M394 97L392 52L393 0H520V54H454V375H321V315H391V182Q391 154 379 131T347 90Q328 73 303 64T249 54Q209 56 190 77T168 129V375H35V315H105V104Q107 54 140 23T230 -8Q285 -8 329 20T394 97ZM278 479Q305 512
331 545T385 612H321Q298 579 276 546T231 479H278Z" />
<glyph unicode="&#xfb;" horiz-adv-x="555" d="M394 97L392 52L393 0H520V54H454V375H321V315H391V182Q391 154 379 131T347 90Q328 73 303 64T249 54Q209 56 190 77T168 129V375H35V315H105V104Q107 54 140 23T230 -8Q285 -8 329 20T394 97ZM193 479Q211 503
229 527T266 575Q284 551 302 527T339 479H386Q356 524 326 569T266 660Q236 615 206 570T146 479H193Z" />
<glyph unicode="&#xfc;" horiz-adv-x="555" d="M394 97L392 52L393 0H520V54H454V375H321V315H391V182Q391 154 379 131T347 90Q328 73 303 64T249 54Q209 56 190 77T168 129V375H35V315H105V104Q107 54 140 23T230 -8Q285 -8 329 20T394 97ZM387 514Q387 533
374 545T345 558Q328 558 315 546T302 514Q302 496 315 484T345 471Q361 471 374 483T387 514ZM221 514Q221 533 208 545T179 558Q163 558 150 546T137 514Q137 496 150 484T179 471Q195 471 208 483T221 514Z" />
<glyph unicode="&#xfd;" horiz-adv-x="609" d="M300 -250V-190H244Q307 -63 370 62T497 315H574V375H371V315H431Q398 250 365 185T307 57Q280 122 247 186T181 315H239V375H35V315H116Q156 235 195 157T274 -1Q250 -48 227 -95T179 -190H92V-250H300ZM345 479Q372
512 398 545T452 612H388Q365 579 343 546T298 479H345Z" />
<glyph unicode="&#xfe;" horiz-adv-x="507" d="M238 -250V-190H156V9Q156 25 156 36T154 56Q159 45 170 34T199 14Q217 3 240 -3T292 -9Q333 -9 369 6T433 49Q460 76 475 111T491 187Q491 226 476 261T433 324Q406 351 370 366T292 382Q241 382 205 362T155 314Q156
323 156 334T156 358V690H224V750H16V690H93V-190H16V-250H238ZM292 322Q318 322 341 313T382 289Q403 271 415 245T427 188Q427 158 416 132T384 87Q366 71 343 62T292 53Q264 53 241 62T199 87Q179 106 168 132T156 188Q156 215 165 239T193 282Q211 300 236
311T292 322Z" />
<glyph unicode="&#xff;" horiz-adv-x="609" d="M300 -250V-190H244Q307 -63 370 62T497 315H574V375H371V315H431Q398 250 365 185T307 57Q280 122 247 186T181 315H239V375H35V315H116Q156 235 195 157T274 -1Q250 -48 227 -95T179 -190H92V-250H300ZM433 514Q433
533 420 545T391 558Q374 558 361 546T348 514Q348 496 361 484T391 471Q407 471 420 483T433 514ZM267 514Q267 533 254 545T225 558Q209 558 196 546T183 514Q183 496 196 484T225 471Q241 471 254 483T267 514Z" />
<glyph unicode="&#x2013;" horiz-adv-x="509" d="M401 175V237H100V175H401Z" />
<glyph unicode="&#x2014;" horiz-adv-x="700" d="M601 175V237H99V175H601Z" />
<glyph unicode="&#x2018;" horiz-adv-x="164" d="M109 590Q88 610 79 639T76 704Q65 706 55 707T34 711Q26 670 38 633T78 568L109 590Z" />
<glyph unicode="&#x2019;" horiz-adv-x="164" d="M117 711Q107 709 97 708T75 704Q82 669 73 640T42 590L73 568Q101 595 113 632T117 711Z" />
<glyph unicode="&#x201a;" horiz-adv-x="146" d="M95 92Q84 90 74 89T52 85Q59 50 50 21T19 -29L50 -51Q78 -24 90 13T95 92Z" />
<glyph unicode="&#x201c;" horiz-adv-x="249" d="M210 590Q189 610 180 639T177 704Q167 706 157 707T135 711Q127 670 139 633T180 568L210 590ZM106 590Q85 610 76 639T73 704Q63 706 53 707T31 711Q23 670 35 633T76 568L106 590Z" />
<glyph unicode="&#x201d;" horiz-adv-x="248" d="M96 711Q85 709 75 708T54 704Q61 669 52 640T21 590L51 568Q80 595 92 632T96 711ZM200 711Q189 709 179 708T158 704Q165 669 156 640T125 590L155 568Q184 595 196 632T200 711Z" />
<glyph unicode="&#x201e;" horiz-adv-x="310" d="M95 92Q84 90 74 89T52 85Q59 50 50 21T19 -29L50 -51Q78 -24 90 13T95 92ZM199 92Q188 90 178 89T156 85Q163 50 154 21T123 -29L154 -51Q182 -24 194 13T199 92Z" />
<glyph unicode="&#x2022;" horiz-adv-x="479" d="M239 192Q262 192 282 200T317 222Q332 237 340 257T349 300Q349 324 341 343T317 379Q302 393 282 401T239 410Q216 410 197 402T162 378Q147 363 139 343T131 300Q131 276 139 257T163 222Q178 207 197 200T239 192Z" />
<glyph unicode="&#x2039;" horiz-adv-x="392" d="M117 239L288 77V149Q266 172 245 194T201 239Q223 262 244 283T288 328V400Q245 359 203 320T117 239Z" />
<glyph unicode="&#x203a;" horiz-adv-x="392" d="M288 239L117 77V149Q139 172 160 194T204 239Q182 262 161 283T117 328V400Q160 359 202 320T288 239Z" />
</font>
</defs>
</svg>
